<svg width="537" height="343" viewBox="0 0 537 343" fill="none" xmlns="http://www.w3.org/2000/svg">
<path d="M62.986 41.2039V32.2032H6.85156V118.91H62.986V109.909H17.8892V79.6067H61.4092V70.606H17.8892V41.5039H62.986V41.2039Z" fill="#FFFFE4" stroke="white" stroke-width="0.5"/>
<path d="M120.697 71.2036L110.921 69.7035C97.9911 67.6033 93.8914 62.5029 93.8914 55.0024C93.8914 45.1017 100.829 40.0013 113.128 40.0013C124.482 40.0013 131.104 44.2016 136.15 50.8021L143.719 44.5016C137.727 36.101 127.635 31.3007 113.128 31.3007C94.5221 31.3007 82.5384 39.4012 82.5384 55.3024C82.5384 66.4032 88.2149 76.0039 106.191 79.0041L116.282 80.5042C128.581 82.6044 133.312 87.1047 133.312 95.5053C133.312 106.006 126.058 112.007 112.813 112.007C101.775 112.007 94.5221 107.806 87.2688 99.4056L79.3848 105.706C86.3227 114.707 96.0989 121.007 112.498 121.007C132.681 121.007 144.349 111.406 144.349 95.2053C144.349 83.5045 138.357 73.9038 120.697 71.2036Z" fill="#FFFFE4" stroke="white" stroke-width="0.5"/>
<path d="M197.016 32.2032H163.588V118.91H174.626V82.3069H196.701C213.73 82.3069 222.561 73.0062 222.561 57.4051C222.876 41.5039 213.73 32.2032 197.016 32.2032ZM211.208 60.4053C211.208 68.5059 205.846 73.0062 196.701 73.0062H174.626V41.2039H196.701C205.846 41.2039 211.208 45.7042 211.208 53.8048V60.4053Z" fill="#FFFFE4" stroke="white" stroke-width="0.5"/>
<path d="M298.246 41.2029V32.2023H242.111V118.909H298.246V109.908H253.149V79.6057H296.984V70.6051H253.149V41.5029H298.246V41.2029ZM265.133 1L255.672 5.50033L269.548 25.3018L276.486 22.3015L265.133 1Z" fill="#FFFFE4" stroke="white" stroke-width="0.5"/>
<path d="M350.912 111.409C336.405 111.409 329.467 100.008 329.467 82.607V68.506C329.467 51.1047 336.405 39.7039 350.912 39.7039C361.949 39.7039 366.365 46.0044 369.518 53.8049L378.979 49.6046C374.564 40.3039 367.626 30.7032 350.912 30.7032C328.836 30.7032 317.799 46.9044 317.799 75.7065C317.799 104.509 328.521 120.41 350.912 120.41C367.626 120.41 374.564 110.809 378.979 101.508L369.518 97.3081C366.365 105.109 362.265 111.409 350.912 111.409Z" fill="#FFFFE4" stroke="white" stroke-width="0.5"/>
<path d="M455.297 41.2039V32.2032H399.162V118.91H455.297V109.909H409.884V79.6067H453.404V70.606H409.884V41.5039H455.297V41.2039Z" fill="#FFFFE4" stroke="white" stroke-width="0.5"/>
<path d="M512.694 71.2036L502.918 69.7035C489.988 67.6033 485.889 62.5029 485.889 55.0024C485.889 45.1017 492.826 40.0013 505.126 40.0013C516.479 40.0013 523.101 44.2016 528.147 50.8021L536.031 44.5016C530.039 36.101 519.948 31.3007 505.441 31.3007C486.835 31.3007 474.851 39.4012 474.851 55.3024C474.851 66.4032 480.527 76.0039 498.503 79.0041L508.595 80.5042C520.894 82.6044 525.624 87.1047 525.624 95.5053C525.624 106.006 518.371 112.007 505.126 112.007C494.088 112.007 486.835 107.806 479.581 99.4056L471.697 105.706C478.635 114.707 488.411 121.007 504.81 121.007C524.993 121.007 536.662 111.406 536.662 95.2053C536.346 83.5045 530.67 73.9038 512.694 71.2036Z" fill="#FFFFE4" stroke="white" stroke-width="0.5"/>
<path d="M42.1728 181.614L32.3966 180.114C19.4668 178.014 15.3671 172.914 15.3671 165.413C15.3671 155.512 22.305 150.412 34.6041 150.412C45.9572 150.412 52.5798 154.612 57.6255 161.213L65.5096 154.912C59.5177 146.512 49.4261 141.711 34.9195 141.711C16.3132 141.711 4.3294 149.812 4.3294 165.713C4.3294 176.814 10.0059 186.415 27.9815 189.415L38.0731 190.915C50.3722 193.015 55.1027 197.515 55.1027 205.916C55.1027 216.417 47.8493 222.417 34.6041 222.417C23.5665 222.417 16.3131 218.217 9.05983 209.816L1.17578 216.117C8.11374 225.117 17.89 231.418 34.2888 231.418C54.4719 231.418 66.1403 221.817 66.1403 205.616C65.825 193.915 60.1484 184.615 42.1728 181.614Z" fill="#FFFFE4" stroke="white" stroke-width="0.5"/>
<path d="M352.804 142.91H105.56L102.091 153.71H356.273L352.804 142.91ZM369.203 194.213H89.1616L77.8086 229.616H89.1616L96.7303 205.014H361.319L369.203 229.616H380.871L369.203 194.213Z" fill="#FFFFE4" stroke="white" stroke-width="0.5"/>
<path d="M445.208 142.91V215.515H444.261L413.041 142.91H397.588V229.616H407.364V156.111H408.31L439.531 229.616H454.984V142.91H445.208Z" fill="#FFFFE4" stroke="white" stroke-width="0.5"/>
<path d="M512.694 181.614L502.918 180.114C489.988 178.014 485.889 172.914 485.889 165.413C485.889 155.512 492.826 150.412 505.126 150.412C516.479 150.412 523.101 154.612 528.147 161.213L536.031 154.912C530.039 146.512 519.948 141.711 505.441 141.711C486.835 141.711 474.851 149.812 474.851 165.713C474.851 176.814 480.527 186.415 498.503 189.415L508.595 190.915C520.894 193.015 525.624 197.515 525.624 205.916C525.624 216.417 518.371 222.417 505.126 222.417C494.088 222.417 486.835 218.217 479.581 209.816L471.697 216.117C478.635 225.117 488.411 231.418 504.81 231.418C524.993 231.418 536.662 221.817 536.662 205.616C536.346 193.915 530.67 184.615 512.694 181.614Z" fill="#FFFFE4" stroke="white" stroke-width="0.5"/>
<path d="M62.986 262.318V253.317H6.85156V340.023H62.986V331.023H17.8892V300.721H61.4092V291.72H17.8892V262.618H62.986V262.318Z" fill="#FFFFE4" stroke="white" stroke-width="0.5"/>
<path d="M120.697 292.022L110.921 290.522C97.9911 288.422 93.8914 283.321 93.8914 275.821C93.8914 265.92 100.829 260.82 113.128 260.82C124.482 260.82 131.104 265.02 136.15 271.62L143.719 265.32C137.727 256.919 127.635 252.119 113.128 252.119C94.5221 252.119 82.5384 260.22 82.5384 276.121C82.5384 287.222 88.2149 296.822 106.191 299.822L116.282 301.323C128.581 303.423 133.312 307.923 133.312 316.324C133.312 326.824 126.058 332.825 112.813 332.825C101.775 332.825 94.5221 328.625 87.2688 320.224L79.3848 326.524C86.3227 335.525 96.0989 341.826 112.498 341.826C132.681 341.826 144.349 332.225 144.349 316.024C144.349 304.623 138.357 295.022 120.697 292.022Z" fill="#FFFFE4" stroke="white" stroke-width="0.5"/>
<path d="M197.016 253.317H163.588V340.023H174.626V303.121H196.701C213.73 303.121 222.561 293.82 222.561 278.219C222.876 262.618 213.73 253.317 197.016 253.317ZM211.208 281.519C211.208 289.62 205.846 294.12 196.701 294.12H174.626V262.318H196.701C205.846 262.318 211.208 266.818 211.208 274.919V281.519Z" fill="#FFFFE4" stroke="white" stroke-width="0.5"/>
<path d="M293.832 306.421H245.266L234.229 340.323H245.897L253.466 315.722H285.317L293.201 340.323H304.87L293.832 306.421ZM280.587 264.418L277.118 253.317H262.611L259.142 264.418H280.587Z" fill="#FFFFE4" stroke="white" stroke-width="0.5"/>
<path d="M350.912 332.523C336.405 332.523 329.467 321.122 329.467 303.721V289.62C329.467 272.218 336.405 260.818 350.912 260.818C361.949 260.818 366.365 267.118 369.518 274.919L378.979 270.718C374.564 261.418 367.626 251.817 350.912 251.817C328.836 251.817 317.799 268.018 317.799 296.82C317.799 325.622 328.521 341.524 350.912 341.524C367.626 341.524 374.564 331.923 378.979 322.622L369.518 318.422C366.365 326.222 362.265 332.523 350.912 332.523Z" fill="#FFFFE4" stroke="white" stroke-width="0.5"/>
<path d="M455.297 262.318V253.317H399.162V340.023H455.297V331.023H409.884V300.721H453.404V291.72H409.884V262.618H455.297V262.318Z" fill="#FFFFE4" stroke="white" stroke-width="0.5"/>
<path d="M512.694 292.022L502.918 290.522C489.988 288.422 485.889 283.321 485.889 275.821C485.889 265.92 492.826 260.82 505.126 260.82C516.479 260.82 523.101 265.02 528.147 271.62L536.031 265.32C530.039 256.919 519.948 252.119 505.441 252.119C486.835 252.119 474.851 260.22 474.851 276.121C474.851 287.222 480.527 296.822 498.503 299.822L508.595 301.323C520.894 303.423 525.624 307.923 525.624 316.324C525.624 326.824 518.371 332.825 505.126 332.825C494.088 332.825 486.835 328.625 479.581 320.224L471.697 326.524C478.635 335.525 488.411 341.826 504.81 341.826C524.993 341.826 536.662 332.225 536.662 316.024C536.346 304.623 530.67 295.022 512.694 292.022Z" fill="#FFFFE4" stroke="white" stroke-width="0.5"/>
</svg>
