<svg xmlns="http://www.w3.org/2000/svg" viewBox="0 0 650.38 341.93"><defs><style>.cls-1{fill:none;stroke:#fefbe6;stroke-linejoin:round;stroke-width:4px;}</style></defs><g id="Layer_2" data-name="Layer 2"><g id="Layer_2-2" data-name="Layer 2"><path class="cls-1" d="M70.67,85.18q2-2.09,6.39-2.09t6.45,2.09q2.08,2.1,2.09,6.45t-2.09,6.45c-1.4,1.4-3.53,2.09-6.39,2.09s-5,.6-6.27,1.79S69,105.27,69,108.29q0,4.3-2.09,6.39t-6.39,2.09a9.84,9.84,0,0,1-5.79-1.49,6.57,6.57,0,0,1-2.57-4.6,7.13,7.13,0,0,1-2.63,4.6,9.58,9.58,0,0,1-5.73,1.49,9.56,9.56,0,0,1-5.73-1.49,7.09,7.09,0,0,1-2.63-4.6,6.7,6.7,0,0,1-2.51,4.6,9.56,9.56,0,0,1-5.73,1.49,9.56,9.56,0,0,1-5.73-1.49,7.09,7.09,0,0,1-2.63-4.6,6.61,6.61,0,0,1-2.57,4.6,9.86,9.86,0,0,1-5.79,1.49q-4.3,0-6.39-2.09T2,108.29a9.86,9.86,0,0,1,1.49-5.79,6.61,6.61,0,0,1,4.6-2.57,7.09,7.09,0,0,1-4.6-2.63A9.56,9.56,0,0,1,2,91.57q0-4.29,2.09-6.39t6.39-2.09c3,0,5.13-.61,6.33-1.85S18.6,77.92,18.6,75s-.6-5-1.79-6.27-3.31-1.85-6.33-1.85-5-.69-6.39-2.09S2,61.22,2,58.31s.7-5.05,2.09-6.45,3.52-2.09,6.39-2.09,5.13-.61,6.33-1.85,1.79-3.32,1.79-6.27.69-5,2.09-6.39,3.56-2.09,6.51-2.09a9.48,9.48,0,0,1,5.73,1.5,6.58,6.58,0,0,1,2.51,4.47,7,7,0,0,1,2.63-4.47,9.48,9.48,0,0,1,5.73-1.5q4.41,0,6.45,2.09t2,6.39c0,3,.61,5,1.85,6.27s3.36,1.85,6.39,1.85q4.29,0,6.39,2.09T69,58.31q0,4.36-2.09,6.45c-1.4,1.4-3.55,2.09-6.45,2.09S55.4,66.16,54,64.76s-2.09-3.56-2.09-6.51-.62-5-1.85-6.27-3.33-1.85-6.27-1.85a9.86,9.86,0,0,1-5.73-1.43,6.85,6.85,0,0,1-2.63-4.54,6.48,6.48,0,0,1-2.51,4.54,9.86,9.86,0,0,1-5.73,1.43q-4.43,0-6.27,1.85c-1.24,1.24-1.85,3.35-1.85,6.33s.61,5.1,1.85,6.33,3.32,1.85,6.27,1.85a9.78,9.78,0,0,1,5.73,1.44,6.44,6.44,0,0,1,2.51,4.53,6.8,6.8,0,0,1,2.63-4.53,9.78,9.78,0,0,1,5.73-1.44q4.41,0,6.45,2t2,6.39q0,4.36-2,6.45c-1.36,1.4-3.51,2.09-6.45,2.09A9.56,9.56,0,0,1,38.07,82a7,7,0,0,1-2.63-4.48A6.6,6.6,0,0,1,32.93,82a9.56,9.56,0,0,1-5.73,1.49q-4.43,0-6.27,1.85c-1.24,1.24-1.85,3.33-1.85,6.27s.61,5,1.85,6.27,3.32,1.85,6.27,1.85a9.48,9.48,0,0,1,5.73,1.5,6.66,6.66,0,0,1,2.51,4.59,7,7,0,0,1,2.63-4.59,9.48,9.48,0,0,1,5.73-1.5,9.5,9.5,0,0,1,5.73,1.5,7.08,7.08,0,0,1,2.63,4.59,6.53,6.53,0,0,1,2.57-4.59,9.77,9.77,0,0,1,5.79-1.5c2.94,0,5-.61,6.27-1.85s1.85-3.32,1.85-6.27S69.31,86.58,70.67,85.18Z"/><path class="cls-1" d="M119.27,50.13q-4.41,0-6.27,1.85t-1.85,6.33q0,4.48,1.85,6.33c1.24,1.24,3.33,1.85,6.27,1.85A9.84,9.84,0,0,1,125,67.93a6.39,6.39,0,0,1,2.5,4.53,6.84,6.84,0,0,1,2.63-4.53,12.14,12.14,0,0,1,11.47,0,6.83,6.83,0,0,1,2.62,4.53,6.35,6.35,0,0,1,2.57-4.53,10.08,10.08,0,0,1,5.79-1.44q4.31,0,6.39,2c1.4,1.36,2.09,3.51,2.09,6.45s.62,5,1.85,6.27,3.33,1.85,6.27,1.85,5,.7,6.39,2.09,2.09,3.55,2.09,6.45-.7,5.06-2.09,6.45-3.52,2.09-6.39,2.09-5,.6-6.27,1.79-1.85,3.31-1.85,6.33c0,2.87-.69,5-2.09,6.39s-3.52,2.09-6.39,2.09a9.84,9.84,0,0,1-5.79-1.49,6.61,6.61,0,0,1-2.57-4.6,7.12,7.12,0,0,1-2.62,4.6,11.78,11.78,0,0,1-11.47,0,7.13,7.13,0,0,1-2.63-4.6,6.66,6.66,0,0,1-2.5,4.6,9.61,9.61,0,0,1-5.74,1.49q-4.41,0-6.5-2.09c-1.4-1.39-2.09-3.52-2.09-6.39q0-4.53-1.8-6.33t-6.32-1.79c-2.87,0-5-.69-6.39-2.09s-2.09-3.54-2.09-6.45.69-5,2.09-6.45,3.54-2.09,6.44-2.09,5.06.7,6.45,2.09,2.09,3.53,2.09,6.39.62,5,1.85,6.27,3.33,1.85,6.27,1.85a9.54,9.54,0,0,1,5.74,1.5,6.61,6.61,0,0,1,2.5,4.59,7.08,7.08,0,0,1,2.63-4.59,11.71,11.71,0,0,1,11.47,0,7.07,7.07,0,0,1,2.62,4.59,6.57,6.57,0,0,1,2.57-4.59,9.77,9.77,0,0,1,5.79-1.5c2.95,0,5-.61,6.27-1.85s1.85-3.32,1.85-6.27-.61-5-1.85-6.27-3.32-1.85-6.27-1.85A9.84,9.84,0,0,1,146.8,82a6.51,6.51,0,0,1-2.57-4.48A7,7,0,0,1,141.61,82a11.78,11.78,0,0,1-11.47,0,7,7,0,0,1-2.63-4.48A6.55,6.55,0,0,1,125,82a9.61,9.61,0,0,1-5.74,1.49c-2.94,0-5.11-.69-6.5-2.09s-2.09-3.52-2.09-6.39-.6-5-1.8-6.27-3.3-1.85-6.32-1.85-5-.69-6.39-2.09-2.09-3.54-2.09-6.45.69-5.05,2.09-6.45,3.52-2.09,6.39-2.09,5.13-.61,6.32-1.85,1.8-3.32,1.8-6.27.69-5,2.09-6.39,3.56-2.09,6.5-2.09a9.54,9.54,0,0,1,5.74,1.5,6.53,6.53,0,0,1,2.5,4.47,7,7,0,0,1,2.63-4.47,11.71,11.71,0,0,1,11.47,0,7,7,0,0,1,2.62,4.47,6.49,6.49,0,0,1,2.57-4.47,9.77,9.77,0,0,1,5.79-1.5q4.31,0,6.39,2.09c1.4,1.4,2.09,3.53,2.09,6.39s.62,5,1.85,6.27,3.33,1.85,6.27,1.85,5,.7,6.39,2.09,2.09,3.55,2.09,6.45-.7,5.06-2.09,6.45-3.54,2.09-6.45,2.09-5-.69-6.38-2.09-2-3.56-2-6.51-.61-5-1.85-6.27-3.32-1.85-6.27-1.85a10.16,10.16,0,0,1-5.79-1.43,6.39,6.39,0,0,1-2.57-4.54,6.88,6.88,0,0,1-2.62,4.54,12.22,12.22,0,0,1-11.47,0,6.89,6.89,0,0,1-2.63-4.54A6.44,6.44,0,0,1,125,48.7,9.92,9.92,0,0,1,119.27,50.13Z"/><path class="cls-1" d="M273.35,58.25A9.84,9.84,0,0,1,271.86,64a6.48,6.48,0,0,1-4.48,2.57,7,7,0,0,1,4.48,2.63A9.58,9.58,0,0,1,273.35,75q0,4.31-2.09,6.39c-1.39,1.4-3.52,2.09-6.39,2.09A9.56,9.56,0,0,1,259.14,82a7,7,0,0,1-2.63-4.48A6.5,6.5,0,0,1,254,82a11.78,11.78,0,0,1-11.47,0,6.51,6.51,0,0,1-2.57-4.48A7,7,0,0,1,237.29,82a11.78,11.78,0,0,1-11.47,0,7,7,0,0,1-2.63-4.48A6.56,6.56,0,0,1,220.68,82,9.56,9.56,0,0,1,215,83.45q-4.41,0-6.27,1.85t-1.85,6.27a9.56,9.56,0,0,1-1.49,5.73,7.09,7.09,0,0,1-4.6,2.63,6.61,6.61,0,0,1,4.6,2.57,9.86,9.86,0,0,1,1.49,5.79q0,4.3-2.09,6.39t-6.45,2.09c-2.91,0-5-.7-6.45-2.09s-2.09-3.52-2.09-6.39a9.79,9.79,0,0,1,1.5-5.79,6.57,6.57,0,0,1,4.6-2.57,7,7,0,0,1-4.6-2.63,9.48,9.48,0,0,1-1.5-5.73,9.5,9.5,0,0,1,1.5-5.73,6.66,6.66,0,0,1,4.6-2.51,7,7,0,0,1-4.6-2.63,9.48,9.48,0,0,1-1.5-5.73,9.5,9.5,0,0,1,1.5-5.73,7.08,7.08,0,0,1,4.6-2.63,6.53,6.53,0,0,1-4.6-2.57,9.77,9.77,0,0,1-1.5-5.79q0-4.29,2.09-6.39t6.39-2.09c3,0,5.14-.61,6.33-1.85s1.79-3.32,1.79-6.27.7-5,2.09-6.39S212,33.17,215,33.17a9.48,9.48,0,0,1,5.73,1.5,6.54,6.54,0,0,1,2.51,4.47,7,7,0,0,1,2.63-4.47,11.71,11.71,0,0,1,11.47,0,7,7,0,0,1,2.62,4.47,6.49,6.49,0,0,1,2.57-4.47,9.77,9.77,0,0,1,5.79-1.5q4.3,0,6.39,2.09t2.09,6.39q0,4.43,1.85,6.27c1.24,1.24,3.33,1.85,6.27,1.85s5,.7,6.39,2.09S273.35,55.39,273.35,58.25Zm-25.08,8.24c2.95,0,5-.61,6.27-1.85s1.85-3.34,1.85-6.33-.62-5.09-1.85-6.33-3.32-1.85-6.27-1.85a10.16,10.16,0,0,1-5.79-1.43,6.39,6.39,0,0,1-2.57-4.54,6.88,6.88,0,0,1-2.62,4.54,12.22,12.22,0,0,1-11.47,0,6.89,6.89,0,0,1-2.63-4.54,6.44,6.44,0,0,1-2.51,4.54A9.86,9.86,0,0,1,215,50.13q-4.41,0-6.27,1.85t-1.85,6.33q0,4.48,1.85,6.33c1.24,1.24,3.33,1.85,6.27,1.85a9.78,9.78,0,0,1,5.73,1.44,6.4,6.4,0,0,1,2.51,4.53,6.84,6.84,0,0,1,2.63-4.53,12.14,12.14,0,0,1,11.47,0,6.83,6.83,0,0,1,2.62,4.53,6.35,6.35,0,0,1,2.57-4.53A10.08,10.08,0,0,1,248.27,66.49Z"/><path class="cls-1" d="M448,85.18q2-2.09,6.39-2.09t6.45,2.09q2.09,2.1,2.09,6.45t-2.09,6.45c-1.4,1.4-3.53,2.09-6.39,2.09s-5,.6-6.27,1.79-1.85,3.31-1.85,6.33q0,4.3-2.09,6.39t-6.39,2.09a9.9,9.9,0,0,1-5.8-1.49,6.56,6.56,0,0,1-2.56-4.6,7.13,7.13,0,0,1-2.63,4.6,11.78,11.78,0,0,1-11.47,0,7.12,7.12,0,0,1-2.62-4.6,6.7,6.7,0,0,1-2.51,4.6,9.6,9.6,0,0,1-5.73,1.49q-4.42,0-6.51-2.09c-1.4-1.39-2.09-3.52-2.09-6.39q0-4.53-1.79-6.33t-6.33-1.79c-2.87,0-5-.69-6.39-2.09s-2.09-3.56-2.09-6.51a9.58,9.58,0,0,1,1.49-5.73,6.7,6.7,0,0,1,4.6-2.51,7.09,7.09,0,0,1-4.6-2.63A9.56,9.56,0,0,1,379.32,75a9.58,9.58,0,0,1,1.49-5.73,7.13,7.13,0,0,1,4.6-2.63,6.57,6.57,0,0,1-4.6-2.57,9.84,9.84,0,0,1-1.49-5.79q0-4.29,2.09-6.39t6.39-2.09c3,0,5.13-.61,6.33-1.85s1.79-3.32,1.79-6.27.69-5,2.09-6.39,3.56-2.09,6.51-2.09a9.53,9.53,0,0,1,5.73,1.5,6.58,6.58,0,0,1,2.51,4.47,7,7,0,0,1,2.62-4.47,9.54,9.54,0,0,1,5.74-1.5q4.41,0,6.45,2.09t2,6.39c0,3,.61,5,1.85,6.27s3.36,1.85,6.39,1.85q4.29,0,6.39,2.09t2.09,6.45q0,4.36-2.09,6.45c-1.4,1.4-3.55,2.09-6.45,2.09s-5.06-.69-6.45-2.09-2.09-3.56-2.09-6.51-.62-5-1.85-6.27-3.33-1.85-6.27-1.85a9.92,9.92,0,0,1-5.74-1.43,6.88,6.88,0,0,1-2.62-4.54,6.48,6.48,0,0,1-2.51,4.54,9.9,9.9,0,0,1-5.73,1.43q-4.42,0-6.27,1.85c-1.24,1.24-1.85,3.33-1.85,6.27A9.77,9.77,0,0,1,394.9,64a6.55,6.55,0,0,1-4.59,2.57,7.11,7.11,0,0,1,4.59,2.63A9.5,9.5,0,0,1,396.4,75a9.48,9.48,0,0,1-1.5,5.73,7.06,7.06,0,0,1-4.59,2.63,6.68,6.68,0,0,1,4.59,2.51,9.5,9.5,0,0,1,1.5,5.73c0,3,.61,5,1.85,6.27s3.32,1.85,6.27,1.85a9.53,9.53,0,0,1,5.73,1.5,6.66,6.66,0,0,1,2.51,4.59,7.07,7.07,0,0,1,2.62-4.59,11.71,11.71,0,0,1,11.47,0,7.08,7.08,0,0,1,2.63,4.59,6.52,6.52,0,0,1,2.56-4.59,9.82,9.82,0,0,1,5.8-1.5c2.94,0,5-.61,6.27-1.85S446,94.52,446,91.57,446.63,86.58,448,85.18Z"/><path class="cls-1" d="M541.38,85.18q2-2.09,6.39-2.09t6.45,2.09q2.09,2.1,2.09,6.45t-2.09,6.45c-1.4,1.4-3.53,2.09-6.39,2.09s-5,.6-6.27,1.79-1.85,3.31-1.85,6.33q0,4.3-2.09,6.39t-6.39,2.09a9.9,9.9,0,0,1-5.8-1.49,6.6,6.6,0,0,1-2.56-4.6,7.13,7.13,0,0,1-2.63,4.6,11.78,11.78,0,0,1-11.47,0,7.12,7.12,0,0,1-2.62-4.6,6.7,6.7,0,0,1-2.51,4.6,11.76,11.76,0,0,1-11.46,0,7.09,7.09,0,0,1-2.63-4.6,6.61,6.61,0,0,1-2.57,4.6,9.84,9.84,0,0,1-5.79,1.49q-4.31,0-6.39-2.09t-2.09-6.39a9.86,9.86,0,0,1,1.49-5.79,6.61,6.61,0,0,1,4.6-2.57,7.09,7.09,0,0,1-4.6-2.63,9.56,9.56,0,0,1-1.49-5.73q0-4.29,2.09-6.39t6.39-2.09c3,0,5.13-.61,6.33-1.85s1.79-3.32,1.79-6.27-.6-5-1.79-6.27-3.31-1.85-6.33-1.85-5-.69-6.39-2.09-2.09-3.54-2.09-6.45.7-5.05,2.09-6.45,3.52-2.09,6.39-2.09,5.13-.61,6.33-1.85,1.79-3.32,1.79-6.27.7-5,2.09-6.39,3.56-2.09,6.51-2.09a9.48,9.48,0,0,1,5.73,1.5,6.58,6.58,0,0,1,2.51,4.47,7,7,0,0,1,2.62-4.47,9.54,9.54,0,0,1,5.74-1.5q4.41,0,6.45,2.09t2,6.39c0,3,.61,5,1.85,6.27s3.36,1.85,6.39,1.85q4.29,0,6.39,2.09t2.09,6.45q0,4.36-2.09,6.45c-1.4,1.4-3.55,2.09-6.45,2.09s-5.06-.69-6.45-2.09-2.09-3.56-2.09-6.51-.62-5-1.85-6.27-3.33-1.85-6.27-1.85a9.92,9.92,0,0,1-5.74-1.43,6.88,6.88,0,0,1-2.62-4.54,6.48,6.48,0,0,1-2.51,4.54,9.86,9.86,0,0,1-5.73,1.43q-4.43,0-6.27,1.85c-1.24,1.24-1.85,3.35-1.85,6.33s.61,5.1,1.85,6.33,3.32,1.85,6.27,1.85a9.78,9.78,0,0,1,5.73,1.44,6.44,6.44,0,0,1,2.51,4.53,6.83,6.83,0,0,1,2.62-4.53,9.84,9.84,0,0,1,5.74-1.44q4.41,0,6.45,2t2,6.39q0,4.36-2,6.45c-1.36,1.4-3.51,2.09-6.45,2.09A9.61,9.61,0,0,1,508.77,82a7,7,0,0,1-2.62-4.48A6.6,6.6,0,0,1,503.64,82a9.56,9.56,0,0,1-5.73,1.49q-4.43,0-6.27,1.85c-1.24,1.24-1.85,3.33-1.85,6.27s.61,5,1.85,6.27,3.32,1.85,6.27,1.85a9.48,9.48,0,0,1,5.73,1.5,6.66,6.66,0,0,1,2.51,4.59,7.07,7.07,0,0,1,2.62-4.59,11.71,11.71,0,0,1,11.47,0,7.08,7.08,0,0,1,2.63,4.59,6.56,6.56,0,0,1,2.56-4.59,9.82,9.82,0,0,1,5.8-1.5c2.94,0,5-.61,6.27-1.85s1.85-3.32,1.85-6.27S540,86.58,541.38,85.18Z"/><path class="cls-1" d="M590,50.13q-4.41,0-6.27,1.85t-1.85,6.33q0,4.48,1.85,6.33C585,65.88,587,66.49,590,66.49a9.84,9.84,0,0,1,5.74,1.44,6.43,6.43,0,0,1,2.5,4.53,6.84,6.84,0,0,1,2.63-4.53,12.14,12.14,0,0,1,11.47,0,6.83,6.83,0,0,1,2.62,4.53,6.35,6.35,0,0,1,2.57-4.53,10.08,10.08,0,0,1,5.79-1.44q4.31,0,6.39,2T631.78,75q0,4.43,1.85,6.27c1.24,1.24,3.33,1.85,6.27,1.85s5,.7,6.39,2.09,2.09,3.55,2.09,6.45-.7,5.06-2.09,6.45-3.52,2.09-6.39,2.09-5,.6-6.27,1.79-1.85,3.31-1.85,6.33q0,4.3-2.09,6.39t-6.39,2.09a9.84,9.84,0,0,1-5.79-1.49,6.61,6.61,0,0,1-2.57-4.6,7.12,7.12,0,0,1-2.62,4.6,11.78,11.78,0,0,1-11.47,0,7.13,7.13,0,0,1-2.63-4.6,6.69,6.69,0,0,1-2.5,4.6,9.61,9.61,0,0,1-5.74,1.49q-4.41,0-6.51-2.09t-2.09-6.39c0-3-.59-5.13-1.79-6.33s-3.3-1.79-6.33-1.79c-2.86,0-5-.69-6.38-2.09s-2.1-3.54-2.1-6.45.7-5,2.1-6.45,3.54-2.09,6.44-2.09,5.06.7,6.45,2.09,2.09,3.53,2.09,6.39.62,5,1.85,6.27S587,99.69,590,99.69a9.54,9.54,0,0,1,5.74,1.5,6.65,6.65,0,0,1,2.5,4.59,7.08,7.08,0,0,1,2.63-4.59,11.71,11.71,0,0,1,11.47,0,7.07,7.07,0,0,1,2.62,4.59,6.57,6.57,0,0,1,2.57-4.59,9.77,9.77,0,0,1,5.79-1.5c3,0,5-.61,6.27-1.85s1.85-3.32,1.85-6.27-.61-5-1.85-6.27-3.32-1.85-6.27-1.85A9.84,9.84,0,0,1,617.51,82a6.51,6.51,0,0,1-2.57-4.48A7,7,0,0,1,612.32,82a11.78,11.78,0,0,1-11.47,0,7,7,0,0,1-2.63-4.48,6.59,6.59,0,0,1-2.5,4.48A9.61,9.61,0,0,1,590,83.45c-2.94,0-5.11-.69-6.51-2.09s-2.09-3.52-2.09-6.39-.59-5-1.79-6.27-3.3-1.85-6.33-1.85c-2.86,0-5-.69-6.38-2.09s-2.1-3.54-2.1-6.45.7-5.05,2.1-6.45,3.52-2.09,6.38-2.09c3,0,5.14-.61,6.33-1.85s1.79-3.32,1.79-6.27.7-5,2.09-6.39S587,33.17,590,33.17a9.54,9.54,0,0,1,5.74,1.5,6.57,6.57,0,0,1,2.5,4.47,7,7,0,0,1,2.63-4.47,11.71,11.71,0,0,1,11.47,0,7,7,0,0,1,2.62,4.47,6.49,6.49,0,0,1,2.57-4.47,9.77,9.77,0,0,1,5.79-1.5q4.31,0,6.39,2.09t2.09,6.39q0,4.43,1.85,6.27c1.24,1.24,3.33,1.85,6.27,1.85s5,.7,6.39,2.09,2.09,3.55,2.09,6.45-.7,5.06-2.09,6.45-3.54,2.09-6.45,2.09-5-.69-6.39-2.09-2-3.56-2-6.51-.61-5-1.85-6.27-3.32-1.85-6.27-1.85a10.16,10.16,0,0,1-5.79-1.43,6.39,6.39,0,0,1-2.57-4.54,6.88,6.88,0,0,1-2.62,4.54,12.22,12.22,0,0,1-11.47,0,6.89,6.89,0,0,1-2.63-4.54,6.47,6.47,0,0,1-2.5,4.54A9.92,9.92,0,0,1,590,50.13Z"/><path class="cls-1" d="M163.1,161.71q-4.42,0-6.27,1.85T155,169.89q0,4.49,1.86,6.33c1.23,1.24,3.32,1.85,6.27,1.85a9.82,9.82,0,0,1,5.73,1.44,6.46,6.46,0,0,1,2.51,4.53,6.81,6.81,0,0,1,2.62-4.53,12.14,12.14,0,0,1,11.47,0,6.86,6.86,0,0,1,2.63,4.53,6.33,6.33,0,0,1,2.56-4.53,10.13,10.13,0,0,1,5.8-1.44q4.29,0,6.39,2t2.09,6.45c0,2.95.61,5,1.85,6.27s3.32,1.85,6.27,1.85,5,.7,6.38,2.09,2.09,3.55,2.09,6.45-.69,5.06-2.09,6.45-3.52,2.09-6.38,2.09-5,.6-6.27,1.79-1.85,3.31-1.85,6.33q0,4.31-2.09,6.39c-1.4,1.4-3.53,2.09-6.39,2.09a9.9,9.9,0,0,1-5.8-1.49,6.56,6.56,0,0,1-2.56-4.6,7.13,7.13,0,0,1-2.63,4.6,11.78,11.78,0,0,1-11.47,0,7.08,7.08,0,0,1-2.62-4.6,6.7,6.7,0,0,1-2.51,4.6,9.6,9.6,0,0,1-5.73,1.49c-2.95,0-5.12-.69-6.51-2.09s-2.09-3.52-2.09-6.39q0-4.53-1.79-6.33t-6.33-1.79c-2.87,0-5-.69-6.39-2.09s-2.09-3.54-2.09-6.45.69-5.05,2.09-6.45,3.54-2.09,6.45-2.09,5.05.7,6.44,2.09,2.09,3.53,2.09,6.39.62,5,1.86,6.27,3.32,1.85,6.27,1.85a9.53,9.53,0,0,1,5.73,1.5,6.68,6.68,0,0,1,2.51,4.6,7.05,7.05,0,0,1,2.62-4.6,11.71,11.71,0,0,1,11.47,0,7.11,7.11,0,0,1,2.63,4.6,6.54,6.54,0,0,1,2.56-4.6,9.82,9.82,0,0,1,5.8-1.5c2.94,0,5-.61,6.27-1.85s1.85-3.32,1.85-6.27-.62-5-1.85-6.27-3.33-1.85-6.27-1.85a9.82,9.82,0,0,1-5.8-1.49,6.47,6.47,0,0,1-2.56-4.48,7,7,0,0,1-2.63,4.48,11.78,11.78,0,0,1-11.47,0,7,7,0,0,1-2.62-4.48,6.6,6.6,0,0,1-2.51,4.48A9.53,9.53,0,0,1,163.1,195c-2.95,0-5.12-.69-6.51-2.09s-2.09-3.52-2.09-6.39-.6-5-1.79-6.27-3.31-1.85-6.33-1.85c-2.87,0-5-.69-6.39-2.09s-2.09-3.54-2.09-6.45.69-5,2.09-6.45,3.52-2.09,6.39-2.09c3,0,5.13-.61,6.33-1.85s1.79-3.32,1.79-6.27.69-5,2.09-6.39,3.56-2.09,6.51-2.09a9.53,9.53,0,0,1,5.73,1.5,6.58,6.58,0,0,1,2.51,4.48,7,7,0,0,1,2.62-4.48,11.71,11.71,0,0,1,11.47,0,7,7,0,0,1,2.63,4.48,6.45,6.45,0,0,1,2.56-4.48,9.82,9.82,0,0,1,5.8-1.5q4.29,0,6.39,2.09t2.09,6.39c0,3,.61,5,1.85,6.27s3.32,1.85,6.27,1.85,5,.7,6.38,2.09,2.09,3.55,2.09,6.45-.69,5.06-2.09,6.45-3.54,2.09-6.44,2.09-5-.69-6.39-2.09-2-3.56-2-6.51-.62-5-1.85-6.27-3.33-1.85-6.27-1.85a10.21,10.21,0,0,1-5.8-1.43,6.35,6.35,0,0,1-2.56-4.54,6.89,6.89,0,0,1-2.63,4.54,12.22,12.22,0,0,1-11.47,0,6.84,6.84,0,0,1-2.62-4.54,6.48,6.48,0,0,1-2.51,4.54A9.9,9.9,0,0,1,163.1,161.71Z"/><path class="cls-1" d="M313.57,186.55a9.61,9.61,0,0,1-1.49,5.74,7,7,0,0,1-4.48,2.62,6.6,6.6,0,0,1,4.48,2.51,11.78,11.78,0,0,1,0,11.47,7,7,0,0,1-4.48,2.62,6.51,6.51,0,0,1,4.48,2.57,9.86,9.86,0,0,1,1.49,5.79q0,4.31-2.09,6.39c-1.39,1.4-3.54,2.09-6.45,2.09s-5-.69-6.39-2.09-2-3.52-2-6.39c0-3-.61-5.13-1.85-6.33s-3.32-1.79-6.27-1.79a9.84,9.84,0,0,1-5.79-1.49,6.61,6.61,0,0,1-2.57-4.6,7.09,7.09,0,0,1-2.63,4.6,11.76,11.76,0,0,1-11.46,0,7.09,7.09,0,0,1-2.63-4.6,6.69,6.69,0,0,1-2.5,4.6,9.61,9.61,0,0,1-5.74,1.49q-4.41,0-6.27,1.79t-1.85,6.33q0,4.31-2.09,6.39c-1.39,1.4-3.54,2.09-6.45,2.09s-5-.69-6.45-2.09-2.09-3.52-2.09-6.39a9.79,9.79,0,0,1,1.5-5.79,6.57,6.57,0,0,1,4.59-2.57,7,7,0,0,1-4.59-2.62,11.71,11.71,0,0,1,0-11.47,6.66,6.66,0,0,1,4.59-2.51,7,7,0,0,1-4.59-2.62,9.54,9.54,0,0,1-1.5-5.74q0-4.41,2.09-6.45t6.39-2c3,0,5.14-.61,6.33-1.85s1.79-3.36,1.79-6.39q0-4.29,2.09-6.39t6.51-2.09c3,0,5-.61,6.27-1.85s1.85-3.32,1.85-6.27.7-5,2.09-6.39,3.55-2.09,6.45-2.09,5,.7,6.39,2.09,2,3.53,2,6.39.62,5,1.85,6.27,3.37,1.85,6.39,1.85,5,.7,6.39,2.09S297,167,297,169.83q0,4.54,1.85,6.39c1.24,1.24,3.33,1.85,6.27,1.85s5,.68,6.39,2S313.57,183.61,313.57,186.55Zm-25.08,8.12c2.95,0,5-.61,6.27-1.85s1.85-3.32,1.85-6.27-.61-5-1.85-6.27-3.32-1.85-6.27-1.85-5.11-.69-6.51-2.09-2.09-3.56-2.09-6.51-.61-5-1.85-6.27-3.32-1.85-6.27-1.85-5,.62-6.27,1.85-1.85,3.33-1.85,6.27-.7,5.12-2.09,6.51-3.52,2.09-6.39,2.09-5,.62-6.27,1.85-1.85,3.33-1.85,6.27.62,5,1.85,6.27,3.33,1.85,6.27,1.85a9.54,9.54,0,0,1,5.74,1.5,6.65,6.65,0,0,1,2.5,4.59,7,7,0,0,1,2.63-4.59,11.69,11.69,0,0,1,11.46,0,7,7,0,0,1,2.63,4.59,6.57,6.57,0,0,1,2.57-4.59A9.77,9.77,0,0,1,288.49,194.67Z"/><path class="cls-1" d="M325.65,219.87a9.79,9.79,0,0,1,1.5-5.79,6.57,6.57,0,0,1,4.59-2.57,7,7,0,0,1-4.59-2.62,11.71,11.71,0,0,1,0-11.47,6.66,6.66,0,0,1,4.59-2.51,7,7,0,0,1-4.59-2.62,11.71,11.71,0,0,1,0-11.47,7.08,7.08,0,0,1,4.59-2.63,6.52,6.52,0,0,1-4.59-2.56,11.71,11.71,0,0,1,0-11.47,6.57,6.57,0,0,1,4.59-2.57,7,7,0,0,1-4.59-2.62,9.54,9.54,0,0,1-1.5-5.74q0-4.29,2.09-6.39t6.39-2.09a9.77,9.77,0,0,1,5.79,1.5,6.45,6.45,0,0,1,2.57,4.48,7,7,0,0,1,2.63-4.48,9.48,9.48,0,0,1,5.73-1.5q4.31,0,6.39,2.09t2.09,6.39q0,4.43,1.85,6.27c1.23,1.24,3.33,1.85,6.27,1.85s5.1.7,6.45,2.09,2,3.53,2,6.39q0,4.54,1.85,6.39c1.23,1.24,3.34,1.85,6.33,1.85s5.1-.61,6.33-1.85,1.85-3.36,1.85-6.39a9.91,9.91,0,0,1,1.43-5.67,6.39,6.39,0,0,1,4.54-2.57,6.84,6.84,0,0,1-4.54-2.62,9.92,9.92,0,0,1-1.43-5.74q0-4.29,2-6.39t6.39-2.09q4.37,0,6.45,2.09t2.09,6.39a9.61,9.61,0,0,1-1.49,5.74,7,7,0,0,1-4.48,2.62,6.51,6.51,0,0,1,4.48,2.57,11.78,11.78,0,0,1,0,11.47,6.47,6.47,0,0,1-4.48,2.56,7,7,0,0,1,4.48,2.63,11.78,11.78,0,0,1,0,11.47,7,7,0,0,1-4.48,2.62,6.6,6.6,0,0,1,4.48,2.51,11.78,11.78,0,0,1,0,11.47,7,7,0,0,1-4.48,2.62,6.51,6.51,0,0,1,4.48,2.57,9.86,9.86,0,0,1,1.49,5.79q0,4.31-2.09,6.39c-1.39,1.4-3.54,2.09-6.45,2.09s-5-.69-6.39-2.09-2-3.52-2-6.39a10.18,10.18,0,0,1,1.43-5.79,6.39,6.39,0,0,1,4.54-2.57,6.84,6.84,0,0,1-4.54-2.62,9.92,9.92,0,0,1-1.43-5.74q0-4.41-1.85-6.27T384.17,195c-2.95,0-5.12-.69-6.51-2.09s-2.09-3.52-2.09-6.39-.62-5-1.85-6.27-3.32-1.85-6.27-1.85-5-.69-6.39-2.09-2.09-3.56-2.09-6.51-.62-5-1.85-6.27-3.32-1.85-6.27-1.85-5,.62-6.27,1.85-1.85,3.33-1.85,6.27a9.9,9.9,0,0,1-1.49,5.8,6.56,6.56,0,0,1-4.6,2.56,7.13,7.13,0,0,1,4.6,2.63,11.78,11.78,0,0,1,0,11.47,7.08,7.08,0,0,1-4.6,2.62,6.7,6.7,0,0,1,4.6,2.51,11.78,11.78,0,0,1,0,11.47,7.08,7.08,0,0,1-4.6,2.62,6.61,6.61,0,0,1,4.6,2.57,9.86,9.86,0,0,1,1.49,5.79q0,4.31-2.09,6.39c-1.39,1.4-3.54,2.09-6.45,2.09s-5.06-.69-6.45-2.09S325.65,222.74,325.65,219.87Z"/><path class="cls-1" d="M447.76,161.71q-4.42,0-6.27,1.85t-1.85,6.33q0,4.49,1.85,6.33c1.23,1.24,3.32,1.85,6.27,1.85a9.78,9.78,0,0,1,5.73,1.44A6.42,6.42,0,0,1,456,184a6.82,6.82,0,0,1,2.63-4.53,12.12,12.12,0,0,1,11.46,0,6.82,6.82,0,0,1,2.63,4.53,6.37,6.37,0,0,1,2.57-4.53,10.08,10.08,0,0,1,5.79-1.44q4.31,0,6.39,2t2.09,6.45q0,4.42,1.85,6.27c1.24,1.24,3.33,1.85,6.27,1.85s5,.7,6.39,2.09,2.09,3.55,2.09,6.45-.7,5.06-2.09,6.45-3.52,2.09-6.39,2.09-5,.6-6.27,1.79-1.85,3.31-1.85,6.33q0,4.31-2.09,6.39c-1.39,1.4-3.52,2.09-6.39,2.09a9.84,9.84,0,0,1-5.79-1.49,6.61,6.61,0,0,1-2.57-4.6,7.09,7.09,0,0,1-2.63,4.6,11.76,11.76,0,0,1-11.46,0,7.09,7.09,0,0,1-2.63-4.6,6.67,6.67,0,0,1-2.51,4.6,9.56,9.56,0,0,1-5.73,1.49c-2.95,0-5.11-.69-6.51-2.09s-2.09-3.52-2.09-6.39c0-3-.59-5.13-1.79-6.33s-3.3-1.79-6.33-1.79c-2.86,0-5-.69-6.39-2.09s-2.09-3.54-2.09-6.45.7-5.05,2.09-6.45,3.55-2.09,6.45-2.09,5.06.7,6.45,2.09,2.09,3.53,2.09,6.39.62,5,1.85,6.27,3.32,1.85,6.27,1.85a9.48,9.48,0,0,1,5.73,1.5,6.64,6.64,0,0,1,2.51,4.6,7.06,7.06,0,0,1,2.63-4.6,11.69,11.69,0,0,1,11.46,0,7.06,7.06,0,0,1,2.63,4.6,6.59,6.59,0,0,1,2.57-4.6,9.77,9.77,0,0,1,5.79-1.5c2.95,0,5-.61,6.27-1.85s1.85-3.32,1.85-6.27-.61-5-1.85-6.27S484,195,481.08,195a9.77,9.77,0,0,1-5.79-1.49,6.51,6.51,0,0,1-2.57-4.48,7,7,0,0,1-2.63,4.48,11.76,11.76,0,0,1-11.46,0,7,7,0,0,1-2.63-4.48,6.56,6.56,0,0,1-2.51,4.48,9.49,9.49,0,0,1-5.73,1.49c-2.95,0-5.11-.69-6.51-2.09s-2.09-3.52-2.09-6.39-.59-5-1.79-6.27-3.3-1.85-6.33-1.85c-2.86,0-5-.69-6.39-2.09s-2.09-3.54-2.09-6.45.7-5,2.09-6.45,3.53-2.09,6.39-2.09c3,0,5.14-.61,6.33-1.85s1.79-3.32,1.79-6.27.7-5,2.09-6.39,3.56-2.09,6.51-2.09a9.48,9.48,0,0,1,5.73,1.5,6.54,6.54,0,0,1,2.51,4.48,7,7,0,0,1,2.63-4.48,11.69,11.69,0,0,1,11.46,0,7,7,0,0,1,2.63,4.48,6.49,6.49,0,0,1,2.57-4.48,9.77,9.77,0,0,1,5.79-1.5q4.31,0,6.39,2.09t2.09,6.39q0,4.43,1.85,6.27c1.24,1.24,3.33,1.85,6.27,1.85s5,.7,6.39,2.09,2.09,3.55,2.09,6.45-.7,5.06-2.09,6.45-3.54,2.09-6.45,2.09-5-.69-6.39-2.09-2-3.56-2-6.51-.61-5-1.85-6.27-3.32-1.85-6.27-1.85a10.16,10.16,0,0,1-5.79-1.43,6.39,6.39,0,0,1-2.57-4.54,6.85,6.85,0,0,1-2.63,4.54,12.2,12.2,0,0,1-11.46,0,6.85,6.85,0,0,1-2.63-4.54,6.44,6.44,0,0,1-2.51,4.54A9.86,9.86,0,0,1,447.76,161.71Z"/><path class="cls-1" d="M70.67,308.34q2-2.08,6.39-2.08t6.45,2.08q2.08,2.1,2.09,6.45t-2.09,6.45c-1.4,1.4-3.53,2.09-6.39,2.09s-5,.6-6.27,1.79S69,328.43,69,331.45s-.7,5-2.09,6.39-3.53,2.09-6.39,2.09a9.77,9.77,0,0,1-5.79-1.49,6.57,6.57,0,0,1-2.57-4.6,7.13,7.13,0,0,1-2.63,4.6,9.51,9.51,0,0,1-5.73,1.49,9.49,9.49,0,0,1-5.73-1.49,7.09,7.09,0,0,1-2.63-4.6,6.7,6.7,0,0,1-2.51,4.6,9.49,9.49,0,0,1-5.73,1.49,9.49,9.49,0,0,1-5.73-1.49,7.09,7.09,0,0,1-2.63-4.6,6.61,6.61,0,0,1-2.57,4.6,9.79,9.79,0,0,1-5.79,1.49c-2.87,0-5-.69-6.39-2.09S2,334.32,2,331.45a9.88,9.88,0,0,1,1.49-5.79,6.61,6.61,0,0,1,4.6-2.57,7.08,7.08,0,0,1-4.6-2.62A9.61,9.61,0,0,1,2,314.73q0-4.29,2.09-6.39t6.39-2.08q4.53,0,6.33-1.86t1.79-6.27q0-4.41-1.79-6.27T10.48,290c-2.87,0-5-.69-6.39-2.09S2,284.38,2,281.47s.7-5.05,2.09-6.44,3.52-2.09,6.39-2.09,5.13-.62,6.33-1.86,1.79-3.32,1.79-6.27.69-5,2.09-6.39,3.56-2.09,6.51-2.09a9.48,9.48,0,0,1,5.73,1.5,6.58,6.58,0,0,1,2.51,4.48,7,7,0,0,1,2.63-4.48,9.48,9.48,0,0,1,5.73-1.5q4.41,0,6.45,2.09t2,6.39c0,2.95.61,5,1.85,6.27s3.36,1.86,6.39,1.86c2.86,0,5,.69,6.39,2.09S69,278.57,69,281.47s-.7,5.06-2.09,6.45S63.36,290,60.46,290s-5.06-.69-6.45-2.09-2.09-3.56-2.09-6.51-.62-5-1.85-6.27-3.33-1.85-6.27-1.85a9.78,9.78,0,0,1-5.73-1.43,6.85,6.85,0,0,1-2.63-4.54,6.48,6.48,0,0,1-2.51,4.54,9.78,9.78,0,0,1-5.73,1.43q-4.43,0-6.27,1.85c-1.24,1.24-1.85,3.35-1.85,6.33s.61,5.1,1.85,6.33,3.32,1.85,6.27,1.85a9.78,9.78,0,0,1,5.73,1.44,6.46,6.46,0,0,1,2.51,4.54,6.82,6.82,0,0,1,2.63-4.54,9.78,9.78,0,0,1,5.73-1.44q4.41,0,6.45,2t2,6.38q0,4.37-2,6.45c-1.36,1.4-3.51,2.09-6.45,2.09a9.49,9.49,0,0,1-5.73-1.49,7,7,0,0,1-2.63-4.48,6.58,6.58,0,0,1-2.51,4.48,9.49,9.49,0,0,1-5.73,1.49q-4.43,0-6.27,1.85c-1.24,1.24-1.85,3.33-1.85,6.27s.61,5,1.85,6.27,3.32,1.85,6.27,1.85a9.48,9.48,0,0,1,5.73,1.5,6.68,6.68,0,0,1,2.51,4.6,7.06,7.06,0,0,1,2.63-4.6,9.48,9.48,0,0,1,5.73-1.5,9.5,9.5,0,0,1,5.73,1.5,7.11,7.11,0,0,1,2.63,4.6,6.55,6.55,0,0,1,2.57-4.6,9.77,9.77,0,0,1,5.79-1.5c2.94,0,5-.61,6.27-1.85s1.85-3.32,1.85-6.27S69.31,309.74,70.67,308.34Z"/><path class="cls-1" d="M119.27,273.29q-4.41,0-6.27,1.85t-1.85,6.33q0,4.48,1.85,6.33c1.24,1.24,3.33,1.85,6.27,1.85a9.84,9.84,0,0,1,5.74,1.44,6.41,6.41,0,0,1,2.5,4.54,6.86,6.86,0,0,1,2.63-4.54,12.14,12.14,0,0,1,11.47,0,6.85,6.85,0,0,1,2.62,4.54,6.37,6.37,0,0,1,2.57-4.54,10.08,10.08,0,0,1,5.79-1.44q4.31,0,6.39,2c1.4,1.35,2.09,3.5,2.09,6.44s.62,5,1.85,6.27,3.33,1.86,6.27,1.86,5,.69,6.39,2.08,2.09,3.55,2.09,6.45-.7,5.06-2.09,6.45-3.52,2.09-6.39,2.09-5,.6-6.27,1.79-1.85,3.31-1.85,6.33-.69,5-2.09,6.39-3.52,2.09-6.39,2.09a9.77,9.77,0,0,1-5.79-1.49,6.61,6.61,0,0,1-2.57-4.6,7.12,7.12,0,0,1-2.62,4.6,11.78,11.78,0,0,1-11.47,0,7.13,7.13,0,0,1-2.63-4.6,6.66,6.66,0,0,1-2.5,4.6,9.54,9.54,0,0,1-5.74,1.49c-2.94,0-5.11-.69-6.5-2.09s-2.09-3.52-2.09-6.39-.6-5.13-1.8-6.33-3.3-1.79-6.32-1.79-5-.69-6.39-2.09-2.09-3.54-2.09-6.45.69-5.05,2.09-6.45,3.54-2.08,6.44-2.08,5.06.69,6.45,2.08,2.09,3.53,2.09,6.39.62,5,1.85,6.27,3.33,1.85,6.27,1.85a9.54,9.54,0,0,1,5.74,1.5,6.63,6.63,0,0,1,2.5,4.6,7.11,7.11,0,0,1,2.63-4.6,11.71,11.71,0,0,1,11.47,0,7.1,7.1,0,0,1,2.62,4.6,6.59,6.59,0,0,1,2.57-4.6,9.77,9.77,0,0,1,5.79-1.5c2.95,0,5-.61,6.27-1.85s1.85-3.32,1.85-6.27-.61-5-1.85-6.27-3.32-1.85-6.27-1.85a9.77,9.77,0,0,1-5.79-1.49,6.49,6.49,0,0,1-2.57-4.48,7,7,0,0,1-2.62,4.48,11.78,11.78,0,0,1-11.47,0,7,7,0,0,1-2.63-4.48,6.53,6.53,0,0,1-2.5,4.48,9.54,9.54,0,0,1-5.74,1.49c-2.94,0-5.11-.69-6.5-2.09s-2.09-3.52-2.09-6.39-.6-5-1.8-6.27-3.3-1.85-6.32-1.85-5-.69-6.39-2.09-2.09-3.54-2.09-6.45.69-5.05,2.09-6.44,3.52-2.09,6.39-2.09,5.13-.62,6.32-1.86,1.8-3.32,1.8-6.27.69-5,2.09-6.39,3.56-2.09,6.5-2.09a9.54,9.54,0,0,1,5.74,1.5,6.53,6.53,0,0,1,2.5,4.48,7,7,0,0,1,2.63-4.48,11.71,11.71,0,0,1,11.47,0,7,7,0,0,1,2.62,4.48,6.49,6.49,0,0,1,2.57-4.48,9.77,9.77,0,0,1,5.79-1.5q4.31,0,6.39,2.09c1.4,1.4,2.09,3.53,2.09,6.39s.62,5,1.85,6.27,3.33,1.86,6.27,1.86,5,.69,6.39,2.09,2.09,3.54,2.09,6.44-.7,5.06-2.09,6.45S172,290,169.13,290s-5-.69-6.38-2.09-2-3.56-2-6.51-.61-5-1.85-6.27-3.32-1.85-6.27-1.85a10.08,10.08,0,0,1-5.79-1.43,6.39,6.39,0,0,1-2.57-4.54,6.88,6.88,0,0,1-2.62,4.54,12.22,12.22,0,0,1-11.47,0,6.89,6.89,0,0,1-2.63-4.54,6.44,6.44,0,0,1-2.5,4.54A9.84,9.84,0,0,1,119.27,273.29Z"/><path class="cls-1" d="M273.35,281.41a9.9,9.9,0,0,1-1.49,5.8,6.47,6.47,0,0,1-4.48,2.56,7,7,0,0,1,4.48,2.63,9.6,9.6,0,0,1,1.49,5.73q0,4.31-2.09,6.39c-1.39,1.4-3.52,2.09-6.39,2.09a9.49,9.49,0,0,1-5.73-1.49,7,7,0,0,1-2.63-4.48,6.48,6.48,0,0,1-2.56,4.48,11.78,11.78,0,0,1-11.47,0,6.49,6.49,0,0,1-2.57-4.48,7,7,0,0,1-2.62,4.48,11.78,11.78,0,0,1-11.47,0,7,7,0,0,1-2.63-4.48,6.54,6.54,0,0,1-2.51,4.48,9.49,9.49,0,0,1-5.73,1.49q-4.41,0-6.27,1.85t-1.85,6.27a9.61,9.61,0,0,1-1.49,5.74,7.08,7.08,0,0,1-4.6,2.62,6.61,6.61,0,0,1,4.6,2.57,9.88,9.88,0,0,1,1.49,5.79q0,4.31-2.09,6.39c-1.39,1.4-3.54,2.09-6.45,2.09s-5-.69-6.45-2.09-2.09-3.52-2.09-6.39a9.81,9.81,0,0,1,1.5-5.79,6.57,6.57,0,0,1,4.6-2.57,7,7,0,0,1-4.6-2.62,11.71,11.71,0,0,1,0-11.47,6.66,6.66,0,0,1,4.6-2.51,7,7,0,0,1-4.6-2.62,11.71,11.71,0,0,1,0-11.47,7.08,7.08,0,0,1,4.6-2.63,6.52,6.52,0,0,1-4.6-2.56,9.82,9.82,0,0,1-1.5-5.8q0-4.29,2.09-6.38c1.4-1.4,3.53-2.09,6.39-2.09q4.54,0,6.33-1.86c1.2-1.23,1.79-3.32,1.79-6.27s.7-5,2.09-6.39,3.57-2.09,6.51-2.09a9.48,9.48,0,0,1,5.73,1.5,6.54,6.54,0,0,1,2.51,4.48,7,7,0,0,1,2.63-4.48,11.71,11.71,0,0,1,11.47,0,7,7,0,0,1,2.62,4.48,6.49,6.49,0,0,1,2.57-4.48,9.77,9.77,0,0,1,5.79-1.5q4.3,0,6.39,2.09t2.09,6.39q0,4.43,1.85,6.27t6.27,1.86c2.87,0,5,.69,6.39,2.09S273.35,278.55,273.35,281.41Zm-25.08,8.24c2.95,0,5-.61,6.27-1.85s1.85-3.34,1.85-6.33-.62-5.09-1.85-6.33-3.32-1.85-6.27-1.85a10.08,10.08,0,0,1-5.79-1.43,6.39,6.39,0,0,1-2.57-4.54,6.88,6.88,0,0,1-2.62,4.54,12.22,12.22,0,0,1-11.47,0,6.89,6.89,0,0,1-2.63-4.54,6.44,6.44,0,0,1-2.51,4.54,9.78,9.78,0,0,1-5.73,1.43q-4.41,0-6.27,1.85t-1.85,6.33q0,4.48,1.85,6.33c1.24,1.24,3.33,1.85,6.27,1.85a9.78,9.78,0,0,1,5.73,1.44,6.42,6.42,0,0,1,2.51,4.54,6.86,6.86,0,0,1,2.63-4.54,12.14,12.14,0,0,1,11.47,0,6.85,6.85,0,0,1,2.62,4.54,6.37,6.37,0,0,1,2.57-4.54A10.08,10.08,0,0,1,248.27,289.65Z"/><path class="cls-1" d="M370.26,298.13a9.61,9.61,0,0,1-1.49,5.74,7,7,0,0,1-4.48,2.62,6.6,6.6,0,0,1,4.48,2.51,11.78,11.78,0,0,1,0,11.47,7,7,0,0,1-4.48,2.62,6.51,6.51,0,0,1,4.48,2.57,9.88,9.88,0,0,1,1.49,5.79c0,2.87-.69,5-2.09,6.39s-3.54,2.09-6.45,2.09-5-.69-6.39-2.09-2-3.52-2-6.39-.62-5.13-1.86-6.33-3.32-1.79-6.27-1.79a9.77,9.77,0,0,1-5.79-1.49,6.59,6.59,0,0,1-2.57-4.6,7.05,7.05,0,0,1-2.62,4.6,11.78,11.78,0,0,1-11.47,0,7.11,7.11,0,0,1-2.63-4.6,6.67,6.67,0,0,1-2.5,4.6,9.54,9.54,0,0,1-5.74,1.49q-4.41,0-6.27,1.79t-1.85,6.33c0,2.87-.69,5-2.09,6.39s-3.54,2.09-6.45,2.09-5.05-.69-6.44-2.09-2.09-3.52-2.09-6.39a9.81,9.81,0,0,1,1.49-5.79,6.59,6.59,0,0,1,4.6-2.57,7.05,7.05,0,0,1-4.6-2.62,11.78,11.78,0,0,1,0-11.47,6.68,6.68,0,0,1,4.6-2.51,7.05,7.05,0,0,1-4.6-2.62,9.54,9.54,0,0,1-1.49-5.74c0-2.94.69-5.09,2.09-6.44s3.52-2,6.39-2c3,0,5.13-.61,6.33-1.85s1.79-3.36,1.79-6.39q0-4.29,2.08-6.38c1.4-1.4,3.57-2.09,6.51-2.09s5-.62,6.27-1.86,1.86-3.32,1.86-6.27.69-5,2.08-6.39,3.55-2.09,6.45-2.09,5,.7,6.39,2.09,2,3.53,2,6.39.62,5,1.86,6.27,3.36,1.86,6.38,1.86,5,.69,6.39,2.09,2.09,3.52,2.09,6.38q0,4.54,1.85,6.39c1.24,1.24,3.33,1.85,6.28,1.85s5,.68,6.38,2S370.26,295.19,370.26,298.13Zm-25.08,8.13q4.43,0,6.27-1.86t1.86-6.27q0-4.41-1.86-6.27T345.18,290c-2.94,0-5.11-.69-6.51-2.09s-2.08-3.56-2.08-6.51-.62-5-1.86-6.27-3.32-1.85-6.26-1.85-5,.62-6.28,1.85-1.85,3.33-1.85,6.27-.7,5.12-2.09,6.51-3.52,2.09-6.39,2.09-5,.62-6.27,1.85-1.85,3.33-1.85,6.27.62,5,1.85,6.27,3.33,1.86,6.27,1.86a9.54,9.54,0,0,1,5.74,1.49,6.67,6.67,0,0,1,2.5,4.59,7.11,7.11,0,0,1,2.63-4.59,11.78,11.78,0,0,1,11.47,0,7.05,7.05,0,0,1,2.62,4.59,6.59,6.59,0,0,1,2.57-4.59A9.77,9.77,0,0,1,345.18,306.26Z"/><path class="cls-1" d="M448,308.34q2-2.08,6.39-2.08t6.45,2.08q2.09,2.1,2.09,6.45t-2.09,6.45c-1.4,1.4-3.53,2.09-6.39,2.09s-5,.6-6.27,1.79-1.85,3.31-1.85,6.33-.7,5-2.09,6.39-3.53,2.09-6.39,2.09a9.82,9.82,0,0,1-5.8-1.49,6.56,6.56,0,0,1-2.56-4.6,7.13,7.13,0,0,1-2.63,4.6,11.78,11.78,0,0,1-11.47,0,7.12,7.12,0,0,1-2.62-4.6,6.7,6.7,0,0,1-2.51,4.6,9.53,9.53,0,0,1-5.73,1.49c-2.95,0-5.12-.69-6.51-2.09s-2.09-3.52-2.09-6.39-.6-5.13-1.79-6.33-3.31-1.79-6.33-1.79-5-.69-6.39-2.09-2.09-3.56-2.09-6.51a9.6,9.6,0,0,1,1.49-5.73,6.7,6.7,0,0,1,4.6-2.51,7.08,7.08,0,0,1-4.6-2.62,11.78,11.78,0,0,1,0-11.47,7.13,7.13,0,0,1,4.6-2.63,6.56,6.56,0,0,1-4.6-2.56,9.9,9.9,0,0,1-1.49-5.8q0-4.29,2.09-6.38c1.39-1.4,3.52-2.09,6.39-2.09s5.13-.62,6.33-1.86,1.79-3.32,1.79-6.27.69-5,2.09-6.39,3.56-2.09,6.51-2.09a9.53,9.53,0,0,1,5.73,1.5,6.58,6.58,0,0,1,2.51,4.48,7,7,0,0,1,2.62-4.48,9.54,9.54,0,0,1,5.74-1.5q4.41,0,6.45,2.09t2,6.39c0,2.95.61,5,1.85,6.27s3.36,1.86,6.39,1.86c2.86,0,5,.69,6.39,2.09s2.09,3.54,2.09,6.44-.7,5.06-2.09,6.45-3.55,2.09-6.45,2.09-5.06-.69-6.45-2.09-2.09-3.56-2.09-6.51-.62-5-1.85-6.27-3.33-1.85-6.27-1.85a9.84,9.84,0,0,1-5.74-1.43,6.88,6.88,0,0,1-2.62-4.54,6.48,6.48,0,0,1-2.51,4.54,9.83,9.83,0,0,1-5.73,1.43q-4.42,0-6.27,1.85c-1.24,1.24-1.85,3.33-1.85,6.27a9.82,9.82,0,0,1-1.5,5.8,6.54,6.54,0,0,1-4.59,2.56,7.11,7.11,0,0,1,4.59,2.63,11.71,11.71,0,0,1,0,11.47,7.05,7.05,0,0,1-4.59,2.62A6.68,6.68,0,0,1,394.9,309a9.53,9.53,0,0,1,1.5,5.73c0,2.95.61,5,1.85,6.27s3.32,1.85,6.27,1.85a9.53,9.53,0,0,1,5.73,1.5,6.68,6.68,0,0,1,2.51,4.6,7.1,7.1,0,0,1,2.62-4.6,11.71,11.71,0,0,1,11.47,0,7.11,7.11,0,0,1,2.63,4.6,6.54,6.54,0,0,1,2.56-4.6,9.82,9.82,0,0,1,5.8-1.5c2.94,0,5-.61,6.27-1.85s1.85-3.32,1.85-6.27S446.63,309.74,448,308.34Z"/><path class="cls-1" d="M541.38,308.34q2-2.08,6.39-2.08t6.45,2.08q2.09,2.1,2.09,6.45t-2.09,6.45c-1.4,1.4-3.53,2.09-6.39,2.09s-5,.6-6.27,1.79-1.85,3.31-1.85,6.33-.7,5-2.09,6.39-3.53,2.09-6.39,2.09a9.82,9.82,0,0,1-5.8-1.49,6.6,6.6,0,0,1-2.56-4.6,7.13,7.13,0,0,1-2.63,4.6,11.78,11.78,0,0,1-11.47,0,7.12,7.12,0,0,1-2.62-4.6,6.7,6.7,0,0,1-2.51,4.6,11.76,11.76,0,0,1-11.46,0,7.09,7.09,0,0,1-2.63-4.6,6.61,6.61,0,0,1-2.57,4.6,9.77,9.77,0,0,1-5.79,1.49c-2.87,0-5-.69-6.39-2.09s-2.09-3.52-2.09-6.39a9.88,9.88,0,0,1,1.49-5.79,6.61,6.61,0,0,1,4.6-2.57,7.08,7.08,0,0,1-4.6-2.62,9.61,9.61,0,0,1-1.49-5.74q0-4.29,2.09-6.39t6.39-2.08q4.53,0,6.33-1.86t1.79-6.27q0-4.41-1.79-6.27T481.19,290c-2.87,0-5-.69-6.39-2.09s-2.09-3.54-2.09-6.45.7-5.05,2.09-6.44,3.52-2.09,6.39-2.09,5.13-.62,6.33-1.86,1.79-3.32,1.79-6.27.7-5,2.09-6.39,3.56-2.09,6.51-2.09a9.48,9.48,0,0,1,5.73,1.5,6.58,6.58,0,0,1,2.51,4.48,7,7,0,0,1,2.62-4.48,9.54,9.54,0,0,1,5.74-1.5q4.41,0,6.45,2.09t2,6.39c0,2.95.61,5,1.85,6.27s3.36,1.86,6.39,1.86c2.86,0,5,.69,6.39,2.09s2.09,3.54,2.09,6.44-.7,5.06-2.09,6.45-3.55,2.09-6.45,2.09-5.06-.69-6.45-2.09-2.09-3.56-2.09-6.51-.62-5-1.85-6.27-3.33-1.85-6.27-1.85a9.84,9.84,0,0,1-5.74-1.43,6.88,6.88,0,0,1-2.62-4.54,6.48,6.48,0,0,1-2.51,4.54,9.78,9.78,0,0,1-5.73,1.43q-4.43,0-6.27,1.85c-1.24,1.24-1.85,3.35-1.85,6.33s.61,5.1,1.85,6.33,3.32,1.85,6.27,1.85a9.78,9.78,0,0,1,5.73,1.44,6.46,6.46,0,0,1,2.51,4.54,6.85,6.85,0,0,1,2.62-4.54,9.84,9.84,0,0,1,5.74-1.44q4.41,0,6.45,2t2,6.38q0,4.37-2,6.45c-1.36,1.4-3.51,2.09-6.45,2.09a9.54,9.54,0,0,1-5.74-1.49,7,7,0,0,1-2.62-4.48,6.58,6.58,0,0,1-2.51,4.48,9.49,9.49,0,0,1-5.73,1.49q-4.43,0-6.27,1.85c-1.24,1.24-1.85,3.33-1.85,6.27s.61,5,1.85,6.27,3.32,1.85,6.27,1.85a9.48,9.48,0,0,1,5.73,1.5,6.68,6.68,0,0,1,2.51,4.6,7.1,7.1,0,0,1,2.62-4.6,11.71,11.71,0,0,1,11.47,0,7.11,7.11,0,0,1,2.63,4.6,6.58,6.58,0,0,1,2.56-4.6,9.82,9.82,0,0,1,5.8-1.5c2.94,0,5-.61,6.27-1.85s1.85-3.32,1.85-6.27S540,309.74,541.38,308.34Z"/><path class="cls-1" d="M590,273.29q-4.41,0-6.27,1.85t-1.85,6.33q0,4.48,1.85,6.33C585,289,587,289.65,590,289.65a9.84,9.84,0,0,1,5.74,1.44,6.45,6.45,0,0,1,2.5,4.54,6.86,6.86,0,0,1,2.63-4.54,12.14,12.14,0,0,1,11.47,0,6.85,6.85,0,0,1,2.62,4.54,6.37,6.37,0,0,1,2.57-4.54,10.08,10.08,0,0,1,5.79-1.44q4.31,0,6.39,2t2.09,6.44q0,4.42,1.85,6.27t6.27,1.86q4.3,0,6.39,2.08t2.09,6.45q0,4.36-2.09,6.45c-1.39,1.4-3.52,2.09-6.39,2.09s-5,.6-6.27,1.79-1.85,3.31-1.85,6.33-.7,5-2.09,6.39-3.52,2.09-6.39,2.09a9.77,9.77,0,0,1-5.79-1.49,6.61,6.61,0,0,1-2.57-4.6,7.12,7.12,0,0,1-2.62,4.6,11.78,11.78,0,0,1-11.47,0,7.13,7.13,0,0,1-2.63-4.6,6.69,6.69,0,0,1-2.5,4.6,9.54,9.54,0,0,1-5.74,1.49c-2.94,0-5.11-.69-6.51-2.09s-2.09-3.52-2.09-6.39-.59-5.13-1.79-6.33-3.3-1.79-6.33-1.79c-2.86,0-5-.69-6.38-2.09s-2.1-3.54-2.1-6.45.7-5.05,2.1-6.45,3.54-2.08,6.44-2.08,5.06.69,6.45,2.08,2.09,3.53,2.09,6.39.62,5,1.85,6.27,3.33,1.85,6.27,1.85a9.54,9.54,0,0,1,5.74,1.5,6.67,6.67,0,0,1,2.5,4.6,7.11,7.11,0,0,1,2.63-4.6,11.71,11.71,0,0,1,11.47,0,7.1,7.1,0,0,1,2.62,4.6,6.59,6.59,0,0,1,2.57-4.6,9.77,9.77,0,0,1,5.79-1.5c3,0,5-.61,6.27-1.85s1.85-3.32,1.85-6.27-.61-5-1.85-6.27-3.32-1.85-6.27-1.85a9.77,9.77,0,0,1-5.79-1.49,6.49,6.49,0,0,1-2.57-4.48,7,7,0,0,1-2.62,4.48,11.78,11.78,0,0,1-11.47,0,7,7,0,0,1-2.63-4.48,6.57,6.57,0,0,1-2.5,4.48,9.54,9.54,0,0,1-5.74,1.49c-2.94,0-5.11-.69-6.51-2.09s-2.09-3.52-2.09-6.39-.59-5-1.79-6.27-3.3-1.85-6.33-1.85c-2.86,0-5-.69-6.38-2.09s-2.1-3.54-2.1-6.45.7-5.05,2.1-6.44,3.52-2.09,6.38-2.09q4.54,0,6.33-1.86c1.2-1.23,1.79-3.32,1.79-6.27s.7-5,2.09-6.39,3.57-2.09,6.51-2.09a9.54,9.54,0,0,1,5.74,1.5,6.57,6.57,0,0,1,2.5,4.48,7,7,0,0,1,2.63-4.48,11.71,11.71,0,0,1,11.47,0,7,7,0,0,1,2.62,4.48,6.49,6.49,0,0,1,2.57-4.48,9.77,9.77,0,0,1,5.79-1.5q4.31,0,6.39,2.09t2.09,6.39q0,4.43,1.85,6.27t6.27,1.86c2.87,0,5,.69,6.39,2.09s2.09,3.54,2.09,6.44-.7,5.06-2.09,6.45-3.54,2.09-6.45,2.09-5-.69-6.39-2.09-2-3.56-2-6.51-.61-5-1.85-6.27-3.32-1.85-6.27-1.85a10.08,10.08,0,0,1-5.79-1.43,6.39,6.39,0,0,1-2.57-4.54,6.88,6.88,0,0,1-2.62,4.54,12.22,12.22,0,0,1-11.47,0,6.89,6.89,0,0,1-2.63-4.54,6.47,6.47,0,0,1-2.5,4.54A9.84,9.84,0,0,1,590,273.29Z"/><path class="cls-1" d="M355.33,85.18q2-2.09,6.39-2.09t6.45,2.09c1.4,1.4,2.09,3.55,2.09,6.45s-.69,5.06-2.09,6.45-3.52,2.09-6.38,2.09-5,.6-6.28,1.79-1.85,3.31-1.85,6.33q0,4.3-2.09,6.39t-6.39,2.09a9.84,9.84,0,0,1-5.79-1.49,6.61,6.61,0,0,1-2.57-4.6,7.08,7.08,0,0,1-2.62,4.6,11.78,11.78,0,0,1-11.47,0,7.13,7.13,0,0,1-2.63-4.6,6.69,6.69,0,0,1-2.5,4.6,11.78,11.78,0,0,1-11.47,0,7.08,7.08,0,0,1-2.62-4.6,6.61,6.61,0,0,1-2.57,4.6,9.88,9.88,0,0,1-5.79,1.49q-4.31,0-6.39-2.09c-1.4-1.39-2.09-3.52-2.09-6.39a9.79,9.79,0,0,1,1.49-5.79,6.59,6.59,0,0,1,4.6-2.57,7.06,7.06,0,0,1-4.6-2.63,9.49,9.49,0,0,1-1.49-5.73c0-2.86.69-5,2.09-6.39s3.52-2.09,6.39-2.09c3,0,5.13-.61,6.33-1.85s1.79-3.32,1.79-6.27-.6-5-1.79-6.27-3.31-1.85-6.33-1.85c-2.87,0-5-.69-6.39-2.09s-2.09-3.54-2.09-6.45.69-5.05,2.09-6.45,3.52-2.09,6.39-2.09c3,0,5.13-.61,6.33-1.85s1.79-3.32,1.79-6.27.69-5,2.08-6.39,3.57-2.09,6.51-2.09a9.54,9.54,0,0,1,5.74,1.5,6.57,6.57,0,0,1,2.5,4.47,7,7,0,0,1,2.63-4.47,9.52,9.52,0,0,1,5.74-1.5q4.41,0,6.44,2.09c1.36,1.4,2,3.53,2,6.39s.62,5,1.86,6.27,3.36,1.85,6.38,1.85,5,.7,6.39,2.09,2.09,3.55,2.09,6.45-.7,5.06-2.09,6.45-3.54,2.09-6.44,2.09-5.06-.69-6.46-2.09-2.08-3.56-2.08-6.51-.62-5-1.86-6.27-3.32-1.85-6.26-1.85a9.89,9.89,0,0,1-5.74-1.43,6.89,6.89,0,0,1-2.63-4.54,6.47,6.47,0,0,1-2.5,4.54,9.92,9.92,0,0,1-5.74,1.43q-4.41,0-6.27,1.85t-1.85,6.33q0,4.48,1.85,6.33c1.24,1.24,3.33,1.85,6.27,1.85a9.84,9.84,0,0,1,5.74,1.44,6.43,6.43,0,0,1,2.5,4.53,6.84,6.84,0,0,1,2.63-4.53,9.82,9.82,0,0,1,5.74-1.44q4.41,0,6.44,2c1.36,1.36,2,3.49,2,6.39s-.67,5.06-2,6.45-3.5,2.09-6.44,2.09A9.59,9.59,0,0,1,322.73,82a7,7,0,0,1-2.63-4.48A6.59,6.59,0,0,1,317.6,82a9.61,9.61,0,0,1-5.74,1.49q-4.41,0-6.27,1.85t-1.85,6.27q0,4.43,1.85,6.27c1.24,1.24,3.33,1.85,6.27,1.85a9.54,9.54,0,0,1,5.74,1.5,6.65,6.65,0,0,1,2.5,4.59,7.08,7.08,0,0,1,2.63-4.59,11.71,11.71,0,0,1,11.47,0,7,7,0,0,1,2.62,4.59,6.57,6.57,0,0,1,2.57-4.59,9.77,9.77,0,0,1,5.79-1.5c2.95,0,5-.61,6.27-1.85s1.86-3.32,1.86-6.27S354,86.58,355.33,85.18Z"/><path class="cls-1" d="M322,9.2a7.6,7.6,0,0,1,.65-3.26,6.29,6.29,0,0,1,2-2.45A9.56,9.56,0,0,1,330.39,2q4.41,0,6.45,2.09t2,6.39c0,2.95.61,5,1.85,6.27s3.36,1.85,6.39,1.85q4.29,0,6.39,2.09c1.39,1.4,2.09,3.54,2.09,6.45s-.7,5.06-2.09,6.45-3.55,2.09-6.45,2.09S342,35,340.6,33.59s-2.09-3.56-2.09-6.51-.62-5-1.85-6.27S333.33,19,330.39,19a9.86,9.86,0,0,1-5.73-1.43,6.16,6.16,0,0,1-2.25-3.12A7.61,7.61,0,0,1,322,11.9Z"/></g></g></svg>