<svg xmlns="http://www.w3.org/2000/svg" viewBox="0 0 659.02 310.79"><defs><style>.cls-1{fill:none;stroke:#fefbe6;stroke-linejoin:round;stroke-width:4px;}</style></defs><g id="Layer_2" data-name="Layer 2"><g id="Layer_1-2" data-name="Layer 1"><path class="cls-1" d="M29.13,19.05q-4.44,0-6.3,1.86C21.58,22.15,21,24.27,21,27.27s.61,5.12,1.86,6.36,3.34,1.86,6.3,1.86a9.88,9.88,0,0,1,5.76,1.44,6.48,6.48,0,0,1,2.52,4.56,6.88,6.88,0,0,1,2.64-4.56,9.88,9.88,0,0,1,5.76-1.44,9.88,9.88,0,0,1,5.76,1.44,6.89,6.89,0,0,1,2.65,4.56,6.36,6.36,0,0,1,2.58-4.56,10.16,10.16,0,0,1,5.82-1.44q4.32,0,6.42,2T71.14,44c0,3,.62,5.07,1.86,6.3s3.34,1.87,6.3,1.87,5,.7,6.42,2.1,2.1,3.56,2.1,6.48-.7,5.08-2.1,6.48-3.54,2.1-6.42,2.1-5.06.6-6.3,1.8-1.86,3.32-1.86,6.36q0,4.32-2.1,6.42T62.62,86a9.85,9.85,0,0,1-5.82-1.5,6.57,6.57,0,0,1-2.58-4.62,7.13,7.13,0,0,1-2.65,4.62A9.58,9.58,0,0,1,45.81,86a9.58,9.58,0,0,1-5.76-1.5,7.12,7.12,0,0,1-2.64-4.62,6.7,6.7,0,0,1-2.52,4.62A9.58,9.58,0,0,1,29.13,86q-4.44,0-6.54-2.1c-1.41-1.4-2.1-3.54-2.1-6.42q0-4.56-1.8-6.36c-1.2-1.2-3.33-1.8-6.37-1.8q-4.32,0-6.42-2.1T3.8,60.76q0-4.38,2.1-6.48t6.48-2.1q4.38,0,6.48,2.1c1.4,1.4,2.11,3.54,2.11,6.42s.61,5.06,1.86,6.3,3.34,1.86,6.3,1.86a9.58,9.58,0,0,1,5.76,1.5A6.7,6.7,0,0,1,37.41,75a7.12,7.12,0,0,1,2.64-4.62,9.58,9.58,0,0,1,5.76-1.5,9.58,9.58,0,0,1,5.76,1.5A7.13,7.13,0,0,1,54.22,75a6.57,6.57,0,0,1,2.58-4.62,9.85,9.85,0,0,1,5.82-1.5q4.44,0,6.3-1.86t1.86-6.3q0-4.44-1.86-6.3c-1.24-1.24-3.34-1.87-6.3-1.87A9.77,9.77,0,0,1,56.8,51a6.47,6.47,0,0,1-2.58-4.5A7,7,0,0,1,51.57,51a9.51,9.51,0,0,1-5.76,1.5A9.51,9.51,0,0,1,40.05,51a7,7,0,0,1-2.64-4.5A6.6,6.6,0,0,1,34.89,51a9.51,9.51,0,0,1-5.76,1.5c-3,0-5.14-.69-6.54-2.1s-2.1-3.54-2.1-6.42-.6-5.06-1.8-6.3-3.33-1.86-6.37-1.86q-4.32,0-6.42-2.1T3.8,27.27q0-4.38,2.1-6.48t6.42-2.1c3,0,5.17-.62,6.37-1.87s1.8-3.34,1.8-6.3.69-5,2.1-6.42S26.17,2,29.13,2a9.58,9.58,0,0,1,5.76,1.5A6.6,6.6,0,0,1,37.41,8a7,7,0,0,1,2.64-4.5A9.58,9.58,0,0,1,45.81,2a9.58,9.58,0,0,1,5.76,1.5A7,7,0,0,1,54.22,8,6.47,6.47,0,0,1,56.8,3.5,9.85,9.85,0,0,1,62.62,2Q66.94,2,69,4.1t2.1,6.42c0,3,.62,5.07,1.86,6.3s3.34,1.87,6.3,1.87,5,.7,6.42,2.1,2.1,3.56,2.1,6.48-.7,5.08-2.1,6.48-3.56,2.1-6.48,2.1-5.06-.7-6.42-2.1-2-3.58-2-6.54-.62-5.06-1.86-6.3-3.34-1.86-6.3-1.86a10.16,10.16,0,0,1-5.82-1.44A6.38,6.38,0,0,1,54.22,13a6.91,6.91,0,0,1-2.65,4.57,9.88,9.88,0,0,1-5.76,1.44,9.88,9.88,0,0,1-5.76-1.44A6.9,6.9,0,0,1,37.41,13a6.5,6.5,0,0,1-2.52,4.57A9.88,9.88,0,0,1,29.13,19.05Z"/><path class="cls-1" d="M184,27.21a9.87,9.87,0,0,1-1.5,5.82,6.51,6.51,0,0,1-4.5,2.58,7,7,0,0,1,4.5,2.64A9.58,9.58,0,0,1,184,44q0,4.32-2.1,6.42c-1.4,1.41-3.54,2.1-6.42,2.1a9.51,9.51,0,0,1-5.76-1.5,7,7,0,0,1-2.64-4.5,6.51,6.51,0,0,1-2.58,4.5,11.83,11.83,0,0,1-11.53,0,6.51,6.51,0,0,1-2.58-4.5,7,7,0,0,1-2.64,4.5,11.81,11.81,0,0,1-11.52,0,7,7,0,0,1-2.64-4.5A6.6,6.6,0,0,1,131,51a9.55,9.55,0,0,1-5.76,1.5c-3,0-5.07.63-6.31,1.87s-1.86,3.34-1.86,6.3a9.58,9.58,0,0,1-1.5,5.76A7.12,7.12,0,0,1,111,69.1a6.61,6.61,0,0,1,4.62,2.58,9.87,9.87,0,0,1,1.5,5.82q0,4.32-2.1,6.42T108.53,86q-4.38,0-6.48-2.1T100,77.5a9.87,9.87,0,0,1,1.5-5.82,6.61,6.61,0,0,1,4.62-2.58,7.12,7.12,0,0,1-4.62-2.64A9.58,9.58,0,0,1,100,60.7a9.58,9.58,0,0,1,1.5-5.76,6.7,6.7,0,0,1,4.62-2.52,7.13,7.13,0,0,1-4.62-2.65A9.58,9.58,0,0,1,100,44a9.58,9.58,0,0,1,1.5-5.76,7.12,7.12,0,0,1,4.62-2.64A6.61,6.61,0,0,1,101.45,33a9.87,9.87,0,0,1-1.5-5.82q0-4.32,2.1-6.42t6.42-2.1q4.56,0,6.36-1.87c1.2-1.23,1.8-3.34,1.8-6.3s.7-5,2.1-6.42S122.31,2,125.28,2A9.62,9.62,0,0,1,131,3.5,6.6,6.6,0,0,1,133.56,8a7,7,0,0,1,2.64-4.5,11.81,11.81,0,0,1,11.52,0A7,7,0,0,1,150.36,8a6.51,6.51,0,0,1,2.58-4.5A9.87,9.87,0,0,1,158.76,2c2.89,0,5,.7,6.43,2.1s2.1,3.54,2.1,6.42.61,5.07,1.86,6.3,3.34,1.87,6.3,1.87,5,.7,6.42,2.1S184,24.33,184,27.21Zm-25.21,8.28q4.44,0,6.31-1.86t1.86-6.36q0-4.5-1.86-6.36t-6.31-1.86a10.18,10.18,0,0,1-5.82-1.44A6.41,6.41,0,0,1,150.36,13a6.9,6.9,0,0,1-2.64,4.57,12.24,12.24,0,0,1-11.52,0A6.9,6.9,0,0,1,133.56,13,6.5,6.5,0,0,1,131,17.61a9.93,9.93,0,0,1-5.76,1.44q-4.45,0-6.31,1.86t-1.86,6.36q0,4.5,1.86,6.36t6.31,1.86A9.93,9.93,0,0,1,131,36.93a6.48,6.48,0,0,1,2.52,4.56,6.88,6.88,0,0,1,2.64-4.56,12.24,12.24,0,0,1,11.52,0,6.88,6.88,0,0,1,2.64,4.56,6.39,6.39,0,0,1,2.58-4.56A10.18,10.18,0,0,1,158.76,35.49Z"/><path class="cls-1" d="M265.11,54.28q2-2.1,6.42-2.1t6.49,2.1q2.1,2.1,2.1,6.48T278,67.24q-2.1,2.1-6.42,2.1t-6.31,1.8q-1.86,1.8-1.86,6.36,0,4.32-2.1,6.42T254.91,86a9.87,9.87,0,0,1-5.82-1.5,6.61,6.61,0,0,1-2.58-4.62,7.12,7.12,0,0,1-2.64,4.62,11.83,11.83,0,0,1-11.53,0,7.12,7.12,0,0,1-2.64-4.62,6.7,6.7,0,0,1-2.52,4.62,11.81,11.81,0,0,1-11.52,0A7.12,7.12,0,0,1,213,79.9a6.61,6.61,0,0,1-2.58,4.62,9.87,9.87,0,0,1-5.82,1.5c-2.88,0-5-.7-6.43-2.1s-2.1-3.54-2.1-6.42a9.87,9.87,0,0,1,1.5-5.82,6.61,6.61,0,0,1,4.63-2.58,7.12,7.12,0,0,1-4.63-2.64,9.58,9.58,0,0,1-1.5-5.76q0-4.32,2.1-6.42c1.4-1.4,3.55-2.1,6.43-2.1q4.56,0,6.36-1.87c1.2-1.23,1.8-3.34,1.8-6.3s-.6-5.06-1.8-6.3-3.32-1.86-6.36-1.86c-2.88,0-5-.7-6.43-2.1s-2.1-3.56-2.1-6.48.7-5.08,2.1-6.48,3.55-2.1,6.43-2.1q4.56,0,6.36-1.87c1.2-1.23,1.8-3.34,1.8-6.3s.7-5,2.1-6.42S218.46,2,221.42,2a9.58,9.58,0,0,1,5.76,1.5A6.6,6.6,0,0,1,229.7,8a7,7,0,0,1,2.64-4.5A9.6,9.6,0,0,1,238.11,2q4.44,0,6.48,2.1t2,6.42c0,3,.62,5.07,1.86,6.3s3.38,1.87,6.42,1.87q4.32,0,6.42,2.1t2.1,6.48q0,4.38-2.1,6.48t-6.48,2.1q-4.38,0-6.48-2.1t-2.1-6.54q0-4.44-1.86-6.3t-6.3-1.86a9.9,9.9,0,0,1-5.77-1.44A6.9,6.9,0,0,1,229.7,13a6.5,6.5,0,0,1-2.52,4.57,9.88,9.88,0,0,1-5.76,1.44q-4.44,0-6.3,1.86t-1.86,6.36q0,4.5,1.86,6.36t6.3,1.86a9.88,9.88,0,0,1,5.76,1.44,6.48,6.48,0,0,1,2.52,4.56,6.88,6.88,0,0,1,2.64-4.56,9.9,9.9,0,0,1,5.77-1.44q4.44,0,6.48,2t2,6.42q0,4.38-2,6.48c-1.36,1.41-3.52,2.1-6.48,2.1a9.53,9.53,0,0,1-5.77-1.5,7,7,0,0,1-2.64-4.5,6.6,6.6,0,0,1-2.52,4.5,9.51,9.51,0,0,1-5.76,1.5c-3,0-5.06.63-6.3,1.87s-1.86,3.34-1.86,6.3.62,5.06,1.86,6.3,3.34,1.86,6.3,1.86a9.58,9.58,0,0,1,5.76,1.5A6.7,6.7,0,0,1,229.7,75a7.12,7.12,0,0,1,2.64-4.62,11.83,11.83,0,0,1,11.53,0A7.12,7.12,0,0,1,246.51,75a6.61,6.61,0,0,1,2.58-4.62,9.87,9.87,0,0,1,5.82-1.5q4.44,0,6.3-1.86t1.86-6.3Q263.07,56.38,265.11,54.28Z"/><path class="cls-1" d="M357.66,54.28q2-2.1,6.42-2.1t6.48,2.1q2.1,2.1,2.1,6.48t-2.1,6.48q-2.1,2.1-6.42,2.1t-6.3,1.8Q356,72.94,356,77.5q0,4.32-2.1,6.42T347.46,86a9.88,9.88,0,0,1-5.83-1.5,6.61,6.61,0,0,1-2.58-4.62,7.12,7.12,0,0,1-2.64,4.62,11.81,11.81,0,0,1-11.52,0,7.12,7.12,0,0,1-2.64-4.62,6.7,6.7,0,0,1-2.52,4.62A9.58,9.58,0,0,1,314,86q-4.46,0-6.54-2.1t-2.11-6.42q0-4.56-1.8-6.36t-6.36-1.8q-4.32,0-6.42-2.1t-2.1-6.54a9.58,9.58,0,0,1,1.5-5.76,6.7,6.7,0,0,1,4.62-2.52,7.13,7.13,0,0,1-4.62-2.65,9.58,9.58,0,0,1-1.5-5.76,9.58,9.58,0,0,1,1.5-5.76,7.12,7.12,0,0,1,4.62-2.64A6.61,6.61,0,0,1,290.14,33a9.87,9.87,0,0,1-1.5-5.82q0-4.32,2.1-6.42t6.42-2.1q4.56,0,6.36-1.87c1.2-1.23,1.8-3.34,1.8-6.3s.7-5,2.11-6.42S311,2,314,2a9.58,9.58,0,0,1,5.76,1.5A6.6,6.6,0,0,1,322.25,8a7,7,0,0,1,2.64-4.5A9.58,9.58,0,0,1,330.65,2q4.44,0,6.48,2.1t2,6.42c0,3,.62,5.07,1.86,6.3s3.38,1.87,6.43,1.87q4.32,0,6.42,2.1t2.1,6.48q0,4.38-2.1,6.48t-6.48,2.1q-4.39,0-6.49-2.1t-2.1-6.54q0-4.44-1.86-6.3t-6.3-1.86a9.88,9.88,0,0,1-5.76-1.44A6.9,6.9,0,0,1,322.25,13a6.5,6.5,0,0,1-2.52,4.57A9.88,9.88,0,0,1,314,19.05q-4.46,0-6.3,1.86t-1.87,6.3A9.87,9.87,0,0,1,304.3,33a6.61,6.61,0,0,1-4.62,2.58,7.12,7.12,0,0,1,4.62,2.64A9.58,9.58,0,0,1,305.8,44a9.58,9.58,0,0,1-1.5,5.76,7.13,7.13,0,0,1-4.62,2.65,6.7,6.7,0,0,1,4.62,2.52,9.58,9.58,0,0,1,1.5,5.76q0,4.44,1.87,6.3t6.3,1.86a9.58,9.58,0,0,1,5.76,1.5A6.7,6.7,0,0,1,322.25,75a7.12,7.12,0,0,1,2.64-4.62,11.81,11.81,0,0,1,11.52,0A7.12,7.12,0,0,1,339.05,75a6.61,6.61,0,0,1,2.58-4.62,9.88,9.88,0,0,1,5.83-1.5q4.44,0,6.3-1.86t1.86-6.3Q355.62,56.38,357.66,54.28Z"/><path class="cls-1" d="M433,27.21A10.18,10.18,0,0,1,431.6,33,6.39,6.39,0,0,1,427,35.61a6.88,6.88,0,0,1,4.56,2.64A9.88,9.88,0,0,1,433,44a9.88,9.88,0,0,1-1.44,5.76A6.89,6.89,0,0,1,427,52.42a6.48,6.48,0,0,1,4.56,2.52A9.88,9.88,0,0,1,433,60.7q0,4.44,1.86,6.3t6.36,1.86q4.5,0,6.36-1.86c1.24-1.24,1.87-3.34,1.87-6.3s.67-5,2-6.42,3.5-2.1,6.42-2.1,5.08.7,6.48,2.1,2.1,3.56,2.1,6.48-.7,5.08-2.1,6.48-3.54,2.1-6.42,2.1-5.07.6-6.3,1.8-1.87,3.32-1.87,6.36q0,4.32-2.1,6.42T441.32,86a9.87,9.87,0,0,1-5.82-1.5,6.61,6.61,0,0,1-2.58-4.62,7.12,7.12,0,0,1-2.64,4.62,11.81,11.81,0,0,1-11.52,0,7.12,7.12,0,0,1-2.64-4.62,6.71,6.71,0,0,1-2.53,4.62,9.58,9.58,0,0,1-5.76,1.5q-4.44,0-6.54-2.1t-2.1-6.42q0-4.56-1.8-6.36T391,69.34q-4.32,0-6.42-2.1t-2.1-6.48q0-4.38,2.1-6.48t6.48-2.1q4.38,0,6.48,2.1t2.1,6.42q0,4.44,1.86,6.3t6.3,1.86q4.44,0,6.3-1.86c1.24-1.24,1.87-3.34,1.87-6.3a9.58,9.58,0,0,1,1.5-5.76,6.6,6.6,0,0,1,4.5-2.52,7,7,0,0,1-4.5-2.65A9.58,9.58,0,0,1,416,44a9.58,9.58,0,0,1,1.5-5.76,7,7,0,0,1,4.5-2.64A6.51,6.51,0,0,1,417.5,33a9.87,9.87,0,0,1-1.5-5.82c0-3-.63-5.06-1.87-6.3s-3.34-1.86-6.3-1.86-5.06.62-6.3,1.86-1.86,3.34-1.86,6.3-.7,5.14-2.1,6.54-3.56,2.1-6.48,2.1-5.08-.7-6.48-2.1-2.1-3.56-2.1-6.48.7-5.08,2.1-6.48,3.54-2.1,6.42-2.1q4.56,0,6.36-1.87c1.2-1.23,1.8-3.34,1.8-6.3s.7-5,2.1-6.42S404.87,2,407.83,2a9.58,9.58,0,0,1,5.76,1.5A6.61,6.61,0,0,1,416.12,8a7,7,0,0,1,2.64-4.5,11.81,11.81,0,0,1,11.52,0A7,7,0,0,1,432.92,8a6.51,6.51,0,0,1,2.58-4.5A9.87,9.87,0,0,1,441.32,2q4.32,0,6.42,2.1t2.1,6.42c0,3,.62,5.07,1.87,6.3s3.34,1.87,6.3,1.87,5,.7,6.42,2.1,2.1,3.56,2.1,6.48-.7,5.08-2.1,6.48-3.56,2.1-6.48,2.1-5.06-.7-6.42-2.1-2-3.58-2-6.54-.63-5.06-1.87-6.3-3.36-1.86-6.36-1.86-5.12.62-6.36,1.86S433,24.25,433,27.21Z"/><path class="cls-1" d="M547.67,54.28q2-2.1,6.42-2.1t6.49,2.1c1.39,1.4,2.1,3.56,2.1,6.48s-.71,5.08-2.1,6.48-3.55,2.1-6.43,2.1-5.06.6-6.3,1.8S546,74.46,546,77.5q0,4.32-2.1,6.42T537.47,86a9.87,9.87,0,0,1-5.82-1.5,6.57,6.57,0,0,1-2.58-4.62,7.12,7.12,0,0,1-2.64,4.62,11.83,11.83,0,0,1-11.53,0,7.12,7.12,0,0,1-2.64-4.62,6.7,6.7,0,0,1-2.52,4.62,11.81,11.81,0,0,1-11.52,0,7.12,7.12,0,0,1-2.64-4.62A6.61,6.61,0,0,1,493,84.52a9.89,9.89,0,0,1-5.82,1.5q-4.33,0-6.43-2.1t-2.1-6.42a9.87,9.87,0,0,1,1.5-5.82,6.61,6.61,0,0,1,4.62-2.58,7.12,7.12,0,0,1-4.62-2.64,9.58,9.58,0,0,1-1.5-5.76q0-4.32,2.1-6.42t6.43-2.1q4.56,0,6.36-1.87c1.2-1.23,1.8-3.34,1.8-6.3s-.6-5.06-1.8-6.3-3.32-1.86-6.36-1.86q-4.33,0-6.43-2.1t-2.1-6.48q0-4.38,2.1-6.48t6.43-2.1q4.56,0,6.36-1.87c1.2-1.23,1.8-3.34,1.8-6.3s.7-5,2.1-6.42S501,2,504,2a9.58,9.58,0,0,1,5.76,1.5A6.6,6.6,0,0,1,512.26,8a7,7,0,0,1,2.64-4.5A9.58,9.58,0,0,1,520.66,2c3,0,5.13.7,6.49,2.1s2,3.54,2,6.42.62,5.07,1.86,6.3,3.38,1.87,6.42,1.87q4.32,0,6.42,2.1t2.1,6.48q0,4.38-2.1,6.48t-6.48,2.1q-4.38,0-6.48-2.1t-2.1-6.54q0-4.44-1.86-6.3t-6.31-1.86a9.88,9.88,0,0,1-5.76-1.44A6.9,6.9,0,0,1,512.26,13a6.5,6.5,0,0,1-2.52,4.57A9.88,9.88,0,0,1,504,19.05q-4.44,0-6.3,1.86t-1.86,6.36q0,4.5,1.86,6.36t6.3,1.86a9.88,9.88,0,0,1,5.76,1.44,6.48,6.48,0,0,1,2.52,4.56,6.88,6.88,0,0,1,2.64-4.56,9.88,9.88,0,0,1,5.76-1.44c3,0,5.13.68,6.49,2s2,3.5,2,6.42-.68,5.08-2,6.48-3.53,2.1-6.49,2.1A9.51,9.51,0,0,1,514.9,51a7,7,0,0,1-2.64-4.5,6.6,6.6,0,0,1-2.52,4.5,9.51,9.51,0,0,1-5.76,1.5c-3,0-5.06.63-6.3,1.87s-1.86,3.34-1.86,6.3.62,5.06,1.86,6.3,3.34,1.86,6.3,1.86a9.58,9.58,0,0,1,5.76,1.5A6.7,6.7,0,0,1,512.26,75a7.12,7.12,0,0,1,2.64-4.62,11.83,11.83,0,0,1,11.53,0A7.12,7.12,0,0,1,529.07,75a6.57,6.57,0,0,1,2.58-4.62,9.87,9.87,0,0,1,5.82-1.5q4.44,0,6.3-1.86t1.86-6.3Q545.63,56.38,547.67,54.28Z"/><path class="cls-1" d="M596.53,19.05q-4.46,0-6.31,1.86t-1.86,6.36q0,4.5,1.86,6.36t6.31,1.86a9.93,9.93,0,0,1,5.76,1.44,6.48,6.48,0,0,1,2.52,4.56,6.88,6.88,0,0,1,2.64-4.56,12.24,12.24,0,0,1,11.52,0,6.88,6.88,0,0,1,2.64,4.56,6.39,6.39,0,0,1,2.58-4.56A10.18,10.18,0,0,1,630,35.49q4.34,0,6.43,2t2.1,6.48c0,3,.62,5.07,1.86,6.3s3.34,1.87,6.3,1.87,5,.7,6.42,2.1,2.1,3.56,2.1,6.48-.7,5.08-2.1,6.48-3.54,2.1-6.42,2.1-5.06.6-6.3,1.8-1.86,3.32-1.86,6.36q0,4.32-2.1,6.42T630,86a9.87,9.87,0,0,1-5.82-1.5,6.61,6.61,0,0,1-2.58-4.62A7.12,7.12,0,0,1,619,84.52a11.81,11.81,0,0,1-11.52,0,7.12,7.12,0,0,1-2.64-4.62,6.7,6.7,0,0,1-2.52,4.62,9.62,9.62,0,0,1-5.76,1.5q-4.46,0-6.55-2.1t-2.1-6.42q0-4.56-1.8-6.36t-6.36-1.8q-4.32,0-6.42-2.1t-2.1-6.48q0-4.38,2.1-6.48t6.48-2.1q4.38,0,6.48,2.1t2.1,6.42q0,4.44,1.86,6.3t6.31,1.86a9.62,9.62,0,0,1,5.76,1.5A6.7,6.7,0,0,1,604.81,75a7.12,7.12,0,0,1,2.64-4.62,11.81,11.81,0,0,1,11.52,0A7.12,7.12,0,0,1,621.61,75a6.61,6.61,0,0,1,2.58-4.62,9.87,9.87,0,0,1,5.82-1.5c3,0,5.07-.62,6.31-1.86s1.86-3.34,1.86-6.3-.62-5.06-1.86-6.3S633,52.53,630,52.53a9.8,9.8,0,0,1-5.82-1.5,6.51,6.51,0,0,1-2.58-4.5A7,7,0,0,1,619,51a11.81,11.81,0,0,1-11.52,0,7,7,0,0,1-2.64-4.5,6.6,6.6,0,0,1-2.52,4.5,9.55,9.55,0,0,1-5.76,1.5c-3,0-5.15-.69-6.55-2.1s-2.1-3.54-2.1-6.42-.6-5.06-1.8-6.3-3.32-1.86-6.36-1.86q-4.32,0-6.42-2.1t-2.1-6.48q0-4.38,2.1-6.48t6.42-2.1q4.56,0,6.36-1.87c1.2-1.23,1.8-3.34,1.8-6.3s.7-5,2.1-6.42S593.56,2,596.53,2a9.62,9.62,0,0,1,5.76,1.5A6.6,6.6,0,0,1,604.81,8a7,7,0,0,1,2.64-4.5A11.81,11.81,0,0,1,619,3.5,7,7,0,0,1,621.61,8a6.51,6.51,0,0,1,2.58-4.5A9.87,9.87,0,0,1,630,2q4.34,0,6.43,2.1t2.1,6.42c0,3,.62,5.07,1.86,6.3s3.34,1.87,6.3,1.87,5,.7,6.42,2.1,2.1,3.56,2.1,6.48-.7,5.08-2.1,6.48-3.56,2.1-6.48,2.1-5.06-.7-6.42-2.1-2-3.58-2-6.54-.62-5.06-1.86-6.3S633,19.05,630,19.05a10.18,10.18,0,0,1-5.82-1.44A6.41,6.41,0,0,1,621.61,13,6.9,6.9,0,0,1,619,17.61a12.24,12.24,0,0,1-11.52,0A6.9,6.9,0,0,1,604.81,13a6.5,6.5,0,0,1-2.52,4.57A9.93,9.93,0,0,1,596.53,19.05Z"/><path class="cls-1" d="M86,139.09a9.87,9.87,0,0,1-1.5,5.82,6.51,6.51,0,0,1-4.5,2.58,7,7,0,0,1,4.5,2.64,11.83,11.83,0,0,1,0,11.53A7,7,0,0,1,80,164.3a6.6,6.6,0,0,1,4.5,2.52,11.81,11.81,0,0,1,0,11.52A7,7,0,0,1,80,181a6.51,6.51,0,0,1,4.5,2.58,9.87,9.87,0,0,1,1.5,5.82c0,2.88-.7,5-2.1,6.43s-3.56,2.1-6.48,2.1-5.06-.7-6.42-2.1-2-3.55-2-6.43q0-4.56-1.86-6.36t-6.3-1.8c-3,0-5.15-.7-6.54-2.1s-2.1-3.58-2.1-6.54-.63-5.06-1.87-6.3S47,164.42,44,164.42s-5.06.62-6.3,1.86-1.86,3.34-1.86,6.3-.7,5.14-2.1,6.54-3.54,2.1-6.42,2.1-5.06.6-6.3,1.8-1.86,3.32-1.86,6.36c0,2.88-.71,5-2.11,6.43s-3.56,2.1-6.48,2.1-5.08-.7-6.48-2.1S2,192.26,2,189.38a9.87,9.87,0,0,1,1.5-5.82A6.61,6.61,0,0,1,8.12,181a7.12,7.12,0,0,1-4.62-2.64,11.81,11.81,0,0,1,0-11.52,6.7,6.7,0,0,1,4.62-2.52,7.12,7.12,0,0,1-4.62-2.64,11.83,11.83,0,0,1,0-11.53,7.12,7.12,0,0,1,4.62-2.64,6.61,6.61,0,0,1-4.62-2.58,11.81,11.81,0,0,1,0-11.52,6.61,6.61,0,0,1,4.62-2.58,7.12,7.12,0,0,1-4.62-2.64A9.58,9.58,0,0,1,2,122.41q0-4.34,2.1-6.43t6.48-2.1q4.38,0,6.48,2.1c1.4,1.4,2.11,3.54,2.11,6.43a9.58,9.58,0,0,1-1.51,5.76A7.12,7.12,0,0,1,13,130.81a6.61,6.61,0,0,1,4.62,2.58,11.74,11.74,0,0,1,0,11.52A6.61,6.61,0,0,1,13,147.49a7.12,7.12,0,0,1,4.62,2.64,9.58,9.58,0,0,1,1.51,5.76c0,3,.61,5.07,1.86,6.31s3.34,1.86,6.3,1.86,5.06-.62,6.3-1.86,1.86-3.35,1.86-6.31.7-5.12,2.1-6.48,3.56-2,6.48-2,5.06.68,6.42,2,2,3.52,2,6.48.62,5.07,1.87,6.31,3.36,1.86,6.36,1.86,5.12-.62,6.36-1.86S69,158.85,69,155.89a9.88,9.88,0,0,1,1.44-5.76A6.88,6.88,0,0,1,75,147.49a6.39,6.39,0,0,1-4.56-2.58A10.18,10.18,0,0,1,69,139.09q0-4.32,2-6.42t6.42-2.1q4.38,0,6.48,2.1T86,139.09Z"/><path class="cls-1" d="M148.68,139.09a10.18,10.18,0,0,1-1.44,5.82,6.39,6.39,0,0,1-4.56,2.58,6.88,6.88,0,0,1,4.56,2.64,12.26,12.26,0,0,1,0,11.53,6.88,6.88,0,0,1-4.56,2.64,6.48,6.48,0,0,1,4.56,2.52,9.88,9.88,0,0,1,1.44,5.76q0,4.44,1.86,6.3t6.36,1.86q4.5,0,6.36-1.86c1.24-1.24,1.87-3.34,1.87-6.3s.67-5,2-6.42,3.5-2.1,6.42-2.1,5.08.7,6.48,2.1,2.1,3.56,2.1,6.48-.7,5.08-2.1,6.48-3.54,2.1-6.42,2.1-5.06.6-6.3,1.8-1.86,3.32-1.86,6.36c0,2.88-.71,5-2.11,6.43s-3.54,2.1-6.42,2.1a9.87,9.87,0,0,1-5.82-1.5,6.61,6.61,0,0,1-2.58-4.63,7.12,7.12,0,0,1-2.64,4.63,11.81,11.81,0,0,1-11.52,0,7.12,7.12,0,0,1-2.64-4.63,6.67,6.67,0,0,1-2.53,4.63,9.58,9.58,0,0,1-5.76,1.5q-4.44,0-6.54-2.1c-1.4-1.4-2.1-3.55-2.1-6.43q0-4.56-1.8-6.36t-6.36-1.8q-4.32,0-6.42-2.1t-2.1-6.48q0-4.38,2.1-6.48t6.48-2.1q4.38,0,6.48,2.1t2.1,6.42q0,4.44,1.86,6.3t6.3,1.86q4.44,0,6.31-1.86c1.23-1.24,1.86-3.34,1.86-6.3a9.58,9.58,0,0,1,1.5-5.76,6.6,6.6,0,0,1,4.5-2.52,7,7,0,0,1-4.5-2.64,11.83,11.83,0,0,1,0-11.53,7,7,0,0,1,4.5-2.64,6.51,6.51,0,0,1-4.5-2.58,9.87,9.87,0,0,1-1.5-5.82c0-3-.63-5.06-1.86-6.3s-3.35-1.86-6.31-1.86-5.06.62-6.3,1.86-1.86,3.34-1.86,6.3-.7,5.14-2.1,6.54-3.56,2.1-6.48,2.1-5.08-.7-6.48-2.1-2.1-3.56-2.1-6.48.7-5.08,2.1-6.48,3.54-2.1,6.42-2.1q4.56,0,6.36-1.86t1.8-6.3q0-4.34,2.1-6.43t6.54-2.1a9.58,9.58,0,0,1,5.76,1.5,6.57,6.57,0,0,1,2.53,4.5,7,7,0,0,1,2.64-4.5,11.81,11.81,0,0,1,11.52,0,7,7,0,0,1,2.64,4.5,6.51,6.51,0,0,1,2.58-4.5,9.87,9.87,0,0,1,5.82-1.5q4.32,0,6.42,2.1c1.4,1.4,2.11,3.54,2.11,6.43s.61,5.06,1.86,6.3,3.34,1.86,6.3,1.86,5,.7,6.42,2.1,2.1,3.56,2.1,6.48-.7,5.08-2.1,6.48-3.56,2.1-6.48,2.1-5.06-.7-6.42-2.1-2-3.58-2-6.54-.63-5.06-1.87-6.3-3.36-1.86-6.36-1.86-5.12.62-6.36,1.86S148.68,136.13,148.68,139.09Z"/><path class="cls-1" d="M269.79,113.88c2.88,0,5,.7,6.43,2.1s2.1,3.56,2.1,6.48-.7,5.07-2.1,6.43-3.55,2-6.43,2a9.88,9.88,0,0,1-5.76-1.44,6.88,6.88,0,0,1-2.64-4.57,6.39,6.39,0,0,1-2.58,4.57,12.24,12.24,0,0,1-11.52,0,6.39,6.39,0,0,1-2.58-4.57,6.88,6.88,0,0,1-2.64,4.57,9.94,9.94,0,0,1-5.77,1.44q-4.44,0-6.3,1.86t-1.86,6.36q0,4.5,1.86,6.36t6.3,1.86c3,0,5.13.68,6.49,2s2,3.52,2,6.48a9.9,9.9,0,0,1-1.44,5.77,6.88,6.88,0,0,1-4.56,2.64,6.48,6.48,0,0,1,4.56,2.52,12.24,12.24,0,0,1,0,11.52,6.88,6.88,0,0,1-4.56,2.64,6.39,6.39,0,0,1,4.56,2.58,10.18,10.18,0,0,1,1.44,5.82c0,2.88-.68,5-2,6.43s-3.51,2.1-6.43,2.1-5.08-.7-6.48-2.1-2.1-3.55-2.1-6.43a9.87,9.87,0,0,1,1.5-5.82,6.51,6.51,0,0,1,4.5-2.58,7,7,0,0,1-4.5-2.64,11.81,11.81,0,0,1,0-11.52,6.6,6.6,0,0,1,4.5-2.52,7,7,0,0,1-4.5-2.64,9.6,9.6,0,0,1-1.5-5.77q0-4.44-1.86-6.3t-6.3-1.86q-4.44,0-6.54-2.1t-2.1-6.54q0-4.44-1.8-6.3t-6.36-1.86q-4.33,0-6.43-2t-2.1-6.43q0-4.38,2.1-6.48t6.43-2.1a9.87,9.87,0,0,1,5.82,1.5,6.51,6.51,0,0,1,2.58,4.5,7,7,0,0,1,2.64-4.5,11.81,11.81,0,0,1,11.52,0,6.6,6.6,0,0,1,2.52,4.5,7,7,0,0,1,2.64-4.5,11.83,11.83,0,0,1,11.53,0,7,7,0,0,1,2.64,4.5,6.51,6.51,0,0,1,2.58-4.5,11.81,11.81,0,0,1,11.52,0,6.51,6.51,0,0,1,2.58,4.5,7,7,0,0,1,2.64-4.5A9.58,9.58,0,0,1,269.79,113.88Z"/><path class="cls-1" d="M370.86,122.41a9.58,9.58,0,0,1-1.5,5.76,7,7,0,0,1-4.5,2.64,6.51,6.51,0,0,1,4.5,2.58,11.81,11.81,0,0,1,0,11.52,6.51,6.51,0,0,1-4.5,2.58,7,7,0,0,1,4.5,2.64,11.83,11.83,0,0,1,0,11.53,7,7,0,0,1-4.5,2.64,6.6,6.6,0,0,1,4.5,2.52,11.81,11.81,0,0,1,0,11.52,7,7,0,0,1-4.5,2.64,6.51,6.51,0,0,1,4.5,2.58,9.87,9.87,0,0,1,1.5,5.82c0,2.88-.7,5-2.1,6.43s-3.56,2.1-6.48,2.1-5.06-.7-6.42-2.1-2-3.55-2-6.43a10.18,10.18,0,0,1,1.44-5.82,6.39,6.39,0,0,1,4.56-2.58,6.88,6.88,0,0,1-4.56-2.64,12.24,12.24,0,0,1,0-11.52,6.48,6.48,0,0,1,4.56-2.52,6.88,6.88,0,0,1-4.56-2.64,9.9,9.9,0,0,1-1.44-5.77q0-4.44-1.86-6.3t-6.36-1.86q-4.52,0-6.37,1.86t-1.86,6.3q0,4.34-2,6.43t-6.48,2.1a9.58,9.58,0,0,1-5.76-1.5,7,7,0,0,1-2.64-4.51,6.6,6.6,0,0,1-2.52,4.51,9.58,9.58,0,0,1-5.76,1.5q-4.46,0-6.31,1.86t-1.86,6.3a9.58,9.58,0,0,1-1.5,5.76,7.12,7.12,0,0,1-4.62,2.64,6.61,6.61,0,0,1,4.62,2.58,9.87,9.87,0,0,1,1.5,5.82c0,2.88-.7,5-2.1,6.43s-3.56,2.1-6.48,2.1-5.08-.7-6.48-2.1-2.1-3.55-2.1-6.43a9.87,9.87,0,0,1,1.5-5.82A6.61,6.61,0,0,1,293,181a7.12,7.12,0,0,1-4.62-2.64,11.81,11.81,0,0,1,0-11.52A6.7,6.7,0,0,1,293,164.3a7.12,7.12,0,0,1-4.62-2.64,11.83,11.83,0,0,1,0-11.53,7.12,7.12,0,0,1,4.62-2.64,6.61,6.61,0,0,1-4.62-2.58,11.81,11.81,0,0,1,0-11.52,6.61,6.61,0,0,1,4.62-2.58,7.12,7.12,0,0,1-4.62-2.64,9.58,9.58,0,0,1-1.5-5.76q0-4.34,2.1-6.43t6.48-2.1q4.38,0,6.48,2.1t2.1,6.43a9.58,9.58,0,0,1-1.5,5.76,7.12,7.12,0,0,1-4.62,2.64,6.61,6.61,0,0,1,4.62,2.58,9.63,9.63,0,0,1,1.5,5.7q0,4.56,1.86,6.42t6.31,1.86a9.88,9.88,0,0,1,5.76,1.44,6.48,6.48,0,0,1,2.52,4.56,6.88,6.88,0,0,1,2.64-4.56,9.88,9.88,0,0,1,5.76-1.44q4.44,0,6.3-1.86t1.86-6.42q0-4.32,2.1-6.42t6.54-2.1c3,0,5.07-.62,6.31-1.86s1.86-3.34,1.86-6.3.68-5,2-6.43,3.5-2.1,6.42-2.1,5.08.7,6.48,2.1S370.86,119.52,370.86,122.41Z"/><path class="cls-1" d="M467,139.09a9.87,9.87,0,0,1-1.5,5.82,6.51,6.51,0,0,1-4.5,2.58,7,7,0,0,1,4.5,2.64,11.83,11.83,0,0,1,0,11.53,7,7,0,0,1-4.5,2.64,6.6,6.6,0,0,1,4.5,2.52,9.58,9.58,0,0,1,1.5,5.76q0,4.44-2.1,6.54t-6.42,2.1c-3,0-5.07.6-6.3,1.8s-1.87,3.32-1.87,6.36c0,2.88-.7,5-2.1,6.43s-3.54,2.1-6.42,2.1a9.87,9.87,0,0,1-5.82-1.5,6.61,6.61,0,0,1-2.58-4.63,7.12,7.12,0,0,1-2.64,4.63,11.81,11.81,0,0,1-11.52,0,7.08,7.08,0,0,1-2.64-4.63,6.75,6.75,0,0,1-2.53,4.63,9.58,9.58,0,0,1-5.76,1.5q-4.44,0-6.54-2.1c-1.4-1.4-2.1-3.55-2.1-6.43q0-4.56-1.8-6.36t-6.36-1.8q-4.32,0-6.42-2.1c-1.41-1.4-2.1-3.58-2.1-6.54a9.58,9.58,0,0,1,1.5-5.76,6.7,6.7,0,0,1,4.62-2.52,7.12,7.12,0,0,1-4.62-2.64,11.83,11.83,0,0,1,0-11.53,7.12,7.12,0,0,1,4.62-2.64,6.61,6.61,0,0,1-4.62-2.58,9.87,9.87,0,0,1-1.5-5.82c0-2.88.69-5,2.1-6.42s3.54-2.1,6.42-2.1q4.56,0,6.36-1.86t1.8-6.3q0-4.34,2.1-6.43t6.54-2.1a9.58,9.58,0,0,1,5.76,1.5,6.64,6.64,0,0,1,2.53,4.5,7,7,0,0,1,2.64-4.5,11.81,11.81,0,0,1,11.52,0,7,7,0,0,1,2.64,4.5,6.51,6.51,0,0,1,2.58-4.5,9.87,9.87,0,0,1,5.82-1.5q4.32,0,6.42,2.1t2.1,6.43q0,4.44,1.87,6.3c1.23,1.24,3.34,1.86,6.3,1.86s5,.7,6.42,2.1S467,136.21,467,139.09ZM456,164.3a6.86,6.86,0,0,1-4.56-2.64,12.19,12.19,0,0,1,0-11.53,6.86,6.86,0,0,1,4.56-2.64,6.37,6.37,0,0,1-4.56-2.58,10.1,10.1,0,0,1-1.45-5.82q0-4.44-1.86-6.3t-6.3-1.86a10.18,10.18,0,0,1-5.82-1.44,6.39,6.39,0,0,1-2.58-4.57,6.88,6.88,0,0,1-2.64,4.57,12.24,12.24,0,0,1-11.52,0,6.84,6.84,0,0,1-2.64-4.57,6.52,6.52,0,0,1-2.53,4.57,9.88,9.88,0,0,1-5.76,1.44q-4.44,0-6.3,1.86t-1.86,6.3a9.87,9.87,0,0,1-1.5,5.82,6.61,6.61,0,0,1-4.62,2.58,7.12,7.12,0,0,1,4.62,2.64,11.83,11.83,0,0,1,0,11.53A7.12,7.12,0,0,1,394,164.3a6.7,6.7,0,0,1,4.62,2.52,9.58,9.58,0,0,1,1.5,5.76q0,4.44,1.86,6.3t6.3,1.86a9.58,9.58,0,0,1,5.76,1.5,6.74,6.74,0,0,1,2.53,4.62,7.08,7.08,0,0,1,2.64-4.62,11.81,11.81,0,0,1,11.52,0,7.12,7.12,0,0,1,2.64,4.62,6.61,6.61,0,0,1,2.58-4.62,9.87,9.87,0,0,1,5.82-1.5q4.44,0,6.3-1.86t1.86-6.3a9.81,9.81,0,0,1,1.45-5.76A6.46,6.46,0,0,1,456,164.3Z"/><path class="cls-1" d="M563.16,122.41a9.58,9.58,0,0,1-1.5,5.76,7.08,7.08,0,0,1-4.51,2.64,6.55,6.55,0,0,1,4.51,2.58,11.81,11.81,0,0,1,0,11.52,6.55,6.55,0,0,1-4.51,2.58,7.08,7.08,0,0,1,4.51,2.64,11.83,11.83,0,0,1,0,11.53,7.08,7.08,0,0,1-4.51,2.64,6.64,6.64,0,0,1,4.51,2.52,9.58,9.58,0,0,1,1.5,5.76c0,3-.71,5.14-2.1,6.54s-3.55,2.1-6.43,2.1-5.06.6-6.3,1.8-1.86,3.32-1.86,6.36c0,2.88-.7,5-2.1,6.43s-3.54,2.1-6.42,2.1a9.87,9.87,0,0,1-5.82-1.5,6.57,6.57,0,0,1-2.58-4.63,7.12,7.12,0,0,1-2.64,4.63,11.83,11.83,0,0,1-11.53,0,7.12,7.12,0,0,1-2.64-4.63,6.7,6.7,0,0,1-2.52,4.63,9.58,9.58,0,0,1-5.76,1.5q-4.44,0-6.54-2.1c-1.4-1.4-2.1-3.55-2.1-6.43q0-4.56-1.8-6.36c-1.2-1.2-3.33-1.8-6.36-1.8s-5-.7-6.43-2.1-2.1-3.58-2.1-6.54a9.58,9.58,0,0,1,1.5-5.76,6.7,6.7,0,0,1,4.62-2.52,7.12,7.12,0,0,1-4.62-2.64,11.83,11.83,0,0,1,0-11.53,7.12,7.12,0,0,1,4.62-2.64,6.61,6.61,0,0,1-4.62-2.58,9.87,9.87,0,0,1-1.5-5.82q0-4.32,2.1-6.42t6.48-2.1q4.4,0,6.49,2.1c1.39,1.4,2.1,3.54,2.1,6.42a9.87,9.87,0,0,1-1.5,5.82,6.65,6.65,0,0,1-4.63,2.58,7.17,7.17,0,0,1,4.63,2.64,11.83,11.83,0,0,1,0,11.53,7.17,7.17,0,0,1-4.63,2.64,6.74,6.74,0,0,1,4.63,2.52,9.58,9.58,0,0,1,1.5,5.76q0,4.44,1.86,6.3t6.3,1.86a9.58,9.58,0,0,1,5.76,1.5,6.7,6.7,0,0,1,2.52,4.62,7.12,7.12,0,0,1,2.64-4.62,11.83,11.83,0,0,1,11.53,0,7.12,7.12,0,0,1,2.64,4.62,6.57,6.57,0,0,1,2.58-4.62,9.87,9.87,0,0,1,5.82-1.5q4.44,0,6.3-1.86t1.86-6.3a9.88,9.88,0,0,1,1.44-5.76,6.48,6.48,0,0,1,4.56-2.52,6.88,6.88,0,0,1-4.56-2.64,12.26,12.26,0,0,1,0-11.53,6.88,6.88,0,0,1,4.56-2.64,6.39,6.39,0,0,1-4.56-2.58,12.24,12.24,0,0,1,0-11.52,6.39,6.39,0,0,1,4.56-2.58,6.88,6.88,0,0,1-4.56-2.64,9.88,9.88,0,0,1-1.44-5.76q0-4.34,2-6.43t6.42-2.1q4.38,0,6.49,2.1C562.45,117.38,563.16,119.52,563.16,122.41Z"/><path class="cls-1" d="M648.5,113.88q4.32,0,6.42,2.1t2.1,6.48q0,4.4-2.1,6.43t-6.42,2a9.88,9.88,0,0,1-5.76-1.44,6.88,6.88,0,0,1-2.64-4.57,6.39,6.39,0,0,1-2.58,4.57,12.26,12.26,0,0,1-11.53,0,6.39,6.39,0,0,1-2.58-4.57,6.88,6.88,0,0,1-2.64,4.57,9.88,9.88,0,0,1-5.76,1.44q-4.44,0-6.3,1.86t-1.86,6.36q0,4.5,1.86,6.36t6.3,1.86q4.44,0,6.48,2t2,6.48a9.9,9.9,0,0,1-1.44,5.77,6.88,6.88,0,0,1-4.56,2.64,6.48,6.48,0,0,1,4.56,2.52,12.24,12.24,0,0,1,0,11.52,6.88,6.88,0,0,1-4.56,2.64,6.39,6.39,0,0,1,4.56,2.58,10.18,10.18,0,0,1,1.44,5.82c0,2.88-.68,5-2,6.43s-3.5,2.1-6.42,2.1-5.08-.7-6.48-2.1-2.1-3.55-2.1-6.43a9.87,9.87,0,0,1,1.5-5.82,6.51,6.51,0,0,1,4.5-2.58,7,7,0,0,1-4.5-2.64,11.81,11.81,0,0,1,0-11.52,6.6,6.6,0,0,1,4.5-2.52,7,7,0,0,1-4.5-2.64,9.6,9.6,0,0,1-1.5-5.77q0-4.44-1.86-6.3c-1.24-1.24-3.35-1.86-6.3-1.86s-5.15-.7-6.55-2.1-2.1-3.58-2.1-6.54-.6-5.06-1.8-6.3-3.32-1.86-6.36-1.86q-4.32,0-6.42-2t-2.1-6.43q0-4.38,2.1-6.48t6.42-2.1a9.87,9.87,0,0,1,5.82,1.5,6.51,6.51,0,0,1,2.58,4.5,7,7,0,0,1,2.64-4.5,11.83,11.83,0,0,1,11.53,0,6.6,6.6,0,0,1,2.52,4.5,7,7,0,0,1,2.64-4.5,11.81,11.81,0,0,1,11.52,0,7,7,0,0,1,2.64,4.5,6.51,6.51,0,0,1,2.58-4.5,11.83,11.83,0,0,1,11.53,0,6.51,6.51,0,0,1,2.58,4.5,7,7,0,0,1,2.64-4.5A9.58,9.58,0,0,1,648.5,113.88Z"/><path class="cls-1" d="M75.34,241.81q-4.44,0-6.3,1.86T67.18,250q0,4.5,1.86,6.36t6.3,1.86a9.88,9.88,0,0,1,5.76,1.44,6.48,6.48,0,0,1,2.52,4.57,6.88,6.88,0,0,1,2.64-4.57A9.92,9.92,0,0,1,92,258.25a9.88,9.88,0,0,1,5.76,1.44,6.88,6.88,0,0,1,2.64,4.57,6.39,6.39,0,0,1,2.58-4.57,10.18,10.18,0,0,1,5.82-1.44q4.32,0,6.42,2c1.4,1.36,2.1,3.53,2.1,6.49s.62,5.06,1.86,6.3,3.34,1.86,6.31,1.86,5,.7,6.42,2.1,2.1,3.56,2.1,6.48-.7,5.08-2.1,6.48-3.54,2.1-6.42,2.1-5.07.6-6.31,1.8-1.86,3.32-1.86,6.37q0,4.32-2.1,6.42t-6.42,2.1a9.87,9.87,0,0,1-5.82-1.5,6.61,6.61,0,0,1-2.58-4.62,7.12,7.12,0,0,1-2.64,4.62,9.58,9.58,0,0,1-5.76,1.5,9.62,9.62,0,0,1-5.77-1.5,7.12,7.12,0,0,1-2.64-4.62,6.7,6.7,0,0,1-2.52,4.62,9.58,9.58,0,0,1-5.76,1.5q-4.44,0-6.54-2.1t-2.1-6.42q0-4.57-1.8-6.37t-6.36-1.8c-2.88,0-5-.7-6.43-2.1s-2.1-3.56-2.1-6.48.7-5.08,2.1-6.48,3.56-2.1,6.49-2.1,5.08.7,6.48,2.1,2.1,3.54,2.1,6.42.62,5.06,1.86,6.3,3.34,1.86,6.3,1.86a9.58,9.58,0,0,1,5.76,1.5,6.7,6.7,0,0,1,2.52,4.62,7.12,7.12,0,0,1,2.64-4.62,9.62,9.62,0,0,1,5.77-1.5,9.58,9.58,0,0,1,5.76,1.5,7.12,7.12,0,0,1,2.64,4.62,6.61,6.61,0,0,1,2.58-4.62,9.87,9.87,0,0,1,5.82-1.5q4.44,0,6.3-1.86t1.86-6.3q0-4.44-1.86-6.3t-6.3-1.86a9.87,9.87,0,0,1-5.82-1.5,6.51,6.51,0,0,1-2.58-4.5,7,7,0,0,1-2.64,4.5A9.58,9.58,0,0,1,92,275.3a9.62,9.62,0,0,1-5.77-1.5,7,7,0,0,1-2.64-4.5,6.6,6.6,0,0,1-2.52,4.5,9.58,9.58,0,0,1-5.76,1.5q-4.44,0-6.54-2.1t-2.1-6.42q0-4.44-1.8-6.31t-6.36-1.86c-2.88,0-5-.7-6.43-2.1S50,253,50,250s.7-5.08,2.1-6.48,3.55-2.1,6.43-2.1q4.56,0,6.36-1.86t1.8-6.3q0-4.33,2.1-6.43c1.4-1.39,3.58-2.1,6.54-2.1a9.58,9.58,0,0,1,5.76,1.5,6.64,6.64,0,0,1,2.52,4.51,7.08,7.08,0,0,1,2.64-4.51,9.62,9.62,0,0,1,5.77-1.5,9.58,9.58,0,0,1,5.76,1.5,7.08,7.08,0,0,1,2.64,4.51,6.55,6.55,0,0,1,2.58-4.51,9.87,9.87,0,0,1,5.82-1.5c2.88,0,5,.71,6.42,2.1s2.1,3.54,2.1,6.43.62,5.06,1.86,6.3,3.34,1.86,6.31,1.86,5,.7,6.42,2.1,2.1,3.56,2.1,6.48-.7,5.08-2.1,6.48-3.56,2.1-6.48,2.1-5.07-.7-6.43-2.1-2-3.58-2-6.54-.62-5.06-1.86-6.3-3.34-1.86-6.3-1.86a10.18,10.18,0,0,1-5.82-1.44,6.39,6.39,0,0,1-2.58-4.56,6.88,6.88,0,0,1-2.64,4.56A9.88,9.88,0,0,1,92,241.81a9.92,9.92,0,0,1-5.77-1.44,6.88,6.88,0,0,1-2.64-4.56,6.48,6.48,0,0,1-2.52,4.56A9.88,9.88,0,0,1,75.34,241.81Z"/><path class="cls-1" d="M230.18,250a9.87,9.87,0,0,1-1.5,5.82,6.51,6.51,0,0,1-4.5,2.58,7,7,0,0,1,4.5,2.64,9.64,9.64,0,0,1,1.5,5.77q0,4.32-2.1,6.42t-6.42,2.1a9.58,9.58,0,0,1-5.76-1.5,7,7,0,0,1-2.64-4.5,6.51,6.51,0,0,1-2.58,4.5,11.81,11.81,0,0,1-11.52,0,6.44,6.44,0,0,1-2.58-4.5,7.09,7.09,0,0,1-2.65,4.5,11.81,11.81,0,0,1-11.52,0,7,7,0,0,1-2.64-4.5,6.6,6.6,0,0,1-2.52,4.5,9.58,9.58,0,0,1-5.76,1.5q-4.44,0-6.3,1.86c-1.25,1.24-1.86,3.34-1.86,6.3a9.58,9.58,0,0,1-1.51,5.76,7.12,7.12,0,0,1-4.62,2.64,6.61,6.61,0,0,1,4.62,2.58,9.92,9.92,0,0,1,1.51,5.83c0,2.88-.71,5-2.1,6.42s-3.57,2.1-6.49,2.1-5.08-.7-6.48-2.1-2.1-3.54-2.1-6.42a9.92,9.92,0,0,1,1.5-5.83,6.61,6.61,0,0,1,4.62-2.58,7.12,7.12,0,0,1-4.62-2.64,11.81,11.81,0,0,1,0-11.52,6.7,6.7,0,0,1,4.62-2.52,7.12,7.12,0,0,1-4.62-2.64,11.83,11.83,0,0,1,0-11.53,7.12,7.12,0,0,1,4.62-2.64,6.61,6.61,0,0,1-4.62-2.58,9.87,9.87,0,0,1-1.5-5.82q0-4.32,2.1-6.42t6.42-2.1q4.56,0,6.36-1.86c1.2-1.24,1.81-3.34,1.81-6.3s.7-5,2.1-6.43,3.58-2.1,6.54-2.1a9.58,9.58,0,0,1,5.76,1.5,6.64,6.64,0,0,1,2.52,4.51,7.08,7.08,0,0,1,2.64-4.51,11.81,11.81,0,0,1,11.52,0,7.14,7.14,0,0,1,2.65,4.51,6.48,6.48,0,0,1,2.58-4.51,9.87,9.87,0,0,1,5.82-1.5c2.88,0,5,.71,6.42,2.1s2.1,3.54,2.1,6.43.62,5.06,1.86,6.3,3.34,1.86,6.3,1.86,5,.7,6.42,2.1S230.18,247.09,230.18,250ZM205,258.25q4.44,0,6.3-1.86t1.86-6.36q0-4.5-1.86-6.36t-6.3-1.86a10.18,10.18,0,0,1-5.82-1.44,6.33,6.33,0,0,1-2.58-4.56,6.93,6.93,0,0,1-2.65,4.56,12.24,12.24,0,0,1-11.52,0,6.88,6.88,0,0,1-2.64-4.56,6.48,6.48,0,0,1-2.52,4.56,9.88,9.88,0,0,1-5.76,1.44q-4.44,0-6.3,1.86c-1.25,1.24-1.86,3.36-1.86,6.36s.61,5.12,1.86,6.36,3.34,1.86,6.3,1.86a9.88,9.88,0,0,1,5.76,1.44,6.48,6.48,0,0,1,2.52,4.57,6.88,6.88,0,0,1,2.64-4.57,12.24,12.24,0,0,1,11.52,0,6.93,6.93,0,0,1,2.65,4.57,6.33,6.33,0,0,1,2.58-4.57A10.18,10.18,0,0,1,205,258.25Z"/><path class="cls-1" d="M326.33,266.78a9.58,9.58,0,0,1-1.5,5.76,7,7,0,0,1-4.5,2.64,6.6,6.6,0,0,1,4.5,2.52,11.81,11.81,0,0,1,0,11.52,7,7,0,0,1-4.5,2.64,6.51,6.51,0,0,1,4.5,2.58,9.92,9.92,0,0,1,1.5,5.83q0,4.32-2.1,6.42t-6.48,2.1q-4.38,0-6.42-2.1c-1.37-1.4-2-3.54-2-6.42,0-3-.63-5.17-1.86-6.37s-3.35-1.8-6.31-1.8a9.87,9.87,0,0,1-5.82-1.5,6.61,6.61,0,0,1-2.58-4.62,7.12,7.12,0,0,1-2.64,4.62,11.81,11.81,0,0,1-11.52,0,7.12,7.12,0,0,1-2.64-4.62,6.7,6.7,0,0,1-2.52,4.62,9.64,9.64,0,0,1-5.77,1.5q-4.44,0-6.3,1.8t-1.86,6.37q0,4.32-2.1,6.42t-6.48,2.1q-4.38,0-6.48-2.1t-2.1-6.42a9.92,9.92,0,0,1,1.5-5.83,6.61,6.61,0,0,1,4.62-2.58,7.12,7.12,0,0,1-4.62-2.64,11.81,11.81,0,0,1,0-11.52,6.7,6.7,0,0,1,4.62-2.52,7.12,7.12,0,0,1-4.62-2.64,9.58,9.58,0,0,1-1.5-5.76c0-3,.7-5.13,2.1-6.49s3.54-2,6.42-2q4.56,0,6.36-1.86T259,250q0-4.32,2.1-6.42t6.54-2.1q4.44,0,6.31-1.86t1.86-6.3q0-4.33,2.1-6.43c1.4-1.39,3.56-2.1,6.48-2.1s5.06.71,6.42,2.1,2,3.54,2,6.43.62,5.06,1.86,6.3,3.38,1.86,6.42,1.86q4.32,0,6.43,2.1c1.39,1.4,2.1,3.54,2.1,6.42q0,4.56,1.86,6.42t6.3,1.86q4.32,0,6.42,2C325.63,261.65,326.33,263.82,326.33,266.78Zm-25.21,8.16q4.44,0,6.31-1.86c1.23-1.24,1.86-3.34,1.86-6.3s-.63-5.06-1.86-6.31-3.35-1.86-6.31-1.86-5.14-.7-6.54-2.1-2.1-3.58-2.1-6.54-.62-5.06-1.86-6.3-3.34-1.86-6.3-1.86-5.06.62-6.3,1.86-1.86,3.34-1.86,6.3-.7,5.14-2.1,6.54-3.55,2.1-6.43,2.1-5.06.62-6.3,1.86-1.86,3.35-1.86,6.31.62,5.06,1.86,6.3,3.34,1.86,6.3,1.86a9.64,9.64,0,0,1,5.77,1.5,6.7,6.7,0,0,1,2.52,4.62,7.12,7.12,0,0,1,2.64-4.62,11.81,11.81,0,0,1,11.52,0,7.12,7.12,0,0,1,2.64,4.62,6.61,6.61,0,0,1,2.58-4.62A9.87,9.87,0,0,1,301.12,274.94Z"/><path class="cls-1" d="M407.59,277q2-2.1,6.42-2.1t6.49,2.1q2.1,2.1,2.1,6.48T420.5,290q-2.12,2.1-6.43,2.1t-6.3,1.8q-1.86,1.8-1.86,6.37,0,4.32-2.1,6.42t-6.42,2.1a9.87,9.87,0,0,1-5.82-1.5,6.61,6.61,0,0,1-2.58-4.62,7.16,7.16,0,0,1-2.64,4.62,11.83,11.83,0,0,1-11.53,0,7.12,7.12,0,0,1-2.64-4.62,6.7,6.7,0,0,1-2.52,4.62,9.58,9.58,0,0,1-5.76,1.5q-4.44,0-6.54-2.1t-2.1-6.42q0-4.57-1.8-6.37t-6.37-1.8q-4.32,0-6.42-2.1t-2.1-6.54a9.58,9.58,0,0,1,1.5-5.76,6.7,6.7,0,0,1,4.62-2.52,7.12,7.12,0,0,1-4.62-2.64,11.83,11.83,0,0,1,0-11.53,7.12,7.12,0,0,1,4.62-2.64,6.61,6.61,0,0,1-4.62-2.58,9.87,9.87,0,0,1-1.5-5.82q0-4.32,2.1-6.42t6.42-2.1q4.57,0,6.37-1.86t1.8-6.3q0-4.33,2.1-6.43c1.4-1.39,3.58-2.1,6.54-2.1a9.58,9.58,0,0,1,5.76,1.5,6.64,6.64,0,0,1,2.52,4.51,7.08,7.08,0,0,1,2.64-4.51,9.58,9.58,0,0,1,5.76-1.5c3,0,5.12.71,6.49,2.1s2,3.54,2,6.43.62,5.06,1.86,6.3,3.38,1.86,6.42,1.86q4.32,0,6.42,2.1t2.1,6.48q0,4.38-2.1,6.48t-6.48,2.1q-4.38,0-6.48-2.1t-2.1-6.54q0-4.44-1.86-6.3t-6.31-1.86a9.88,9.88,0,0,1-5.76-1.44,6.88,6.88,0,0,1-2.64-4.56,6.48,6.48,0,0,1-2.52,4.56,9.88,9.88,0,0,1-5.76,1.44q-4.44,0-6.3,1.86t-1.86,6.3a9.87,9.87,0,0,1-1.5,5.82,6.61,6.61,0,0,1-4.62,2.58,7.12,7.12,0,0,1,4.62,2.64,11.83,11.83,0,0,1,0,11.53,7.12,7.12,0,0,1-4.62,2.64,6.7,6.7,0,0,1,4.62,2.52,9.58,9.58,0,0,1,1.5,5.76q0,4.44,1.86,6.3t6.3,1.86a9.58,9.58,0,0,1,5.76,1.5,6.7,6.7,0,0,1,2.52,4.62,7.12,7.12,0,0,1,2.64-4.62,11.83,11.83,0,0,1,11.53,0,7.16,7.16,0,0,1,2.64,4.62,6.61,6.61,0,0,1,2.58-4.62,9.87,9.87,0,0,1,5.82-1.5q4.44,0,6.3-1.86t1.86-6.3Q405.55,279.14,407.59,277Z"/><path class="cls-1" d="M501.46,277q2-2.1,6.42-2.1t6.48,2.1q2.1,2.1,2.1,6.48t-2.1,6.48q-2.1,2.1-6.42,2.1t-6.3,1.8q-1.86,1.8-1.86,6.37,0,4.32-2.1,6.42t-6.42,2.1a9.88,9.88,0,0,1-5.83-1.5,6.61,6.61,0,0,1-2.58-4.62,7.12,7.12,0,0,1-2.64,4.62,11.81,11.81,0,0,1-11.52,0,7.12,7.12,0,0,1-2.64-4.62,6.7,6.7,0,0,1-2.52,4.62,11.83,11.83,0,0,1-11.53,0,7.12,7.12,0,0,1-2.64-4.62,6.61,6.61,0,0,1-2.58,4.62,9.87,9.87,0,0,1-5.82,1.5q-4.32,0-6.42-2.1t-2.1-6.42a9.92,9.92,0,0,1,1.5-5.83,6.61,6.61,0,0,1,4.62-2.58,7.12,7.12,0,0,1-4.62-2.64,9.58,9.58,0,0,1-1.5-5.76q0-4.32,2.1-6.42t6.42-2.1q4.56,0,6.36-1.86t1.8-6.3q0-4.44-1.8-6.31T441,258.61q-4.32,0-6.42-2.1t-2.1-6.48q0-4.38,2.1-6.48t6.42-2.1q4.56,0,6.36-1.86t1.8-6.3q0-4.33,2.1-6.43c1.4-1.39,3.59-2.1,6.55-2.1a9.58,9.58,0,0,1,5.76,1.5,6.64,6.64,0,0,1,2.52,4.51,7.08,7.08,0,0,1,2.64-4.51,9.58,9.58,0,0,1,5.76-1.5c3,0,5.12.71,6.48,2.1s2,3.54,2,6.43.62,5.06,1.86,6.3,3.38,1.86,6.43,1.86q4.32,0,6.42,2.1t2.1,6.48q0,4.38-2.1,6.48t-6.48,2.1q-4.4,0-6.49-2.1t-2.1-6.54q0-4.44-1.86-6.3t-6.3-1.86a9.88,9.88,0,0,1-5.76-1.44,6.88,6.88,0,0,1-2.64-4.56,6.48,6.48,0,0,1-2.52,4.56,9.88,9.88,0,0,1-5.76,1.44q-4.44,0-6.31,1.86T449.6,250q0,4.5,1.86,6.36t6.31,1.86a9.88,9.88,0,0,1,5.76,1.44,6.48,6.48,0,0,1,2.52,4.57,6.88,6.88,0,0,1,2.64-4.57,9.88,9.88,0,0,1,5.76-1.44q4.44,0,6.48,2c1.36,1.36,2,3.51,2,6.43s-.68,5.08-2,6.48-3.52,2.1-6.48,2.1a9.58,9.58,0,0,1-5.76-1.5,7,7,0,0,1-2.64-4.5,6.6,6.6,0,0,1-2.52,4.5,9.58,9.58,0,0,1-5.76,1.5q-4.44,0-6.31,1.86t-1.86,6.3q0,4.44,1.86,6.3t6.31,1.86a9.58,9.58,0,0,1,5.76,1.5,6.7,6.7,0,0,1,2.52,4.62,7.12,7.12,0,0,1,2.64-4.62,11.81,11.81,0,0,1,11.52,0,7.12,7.12,0,0,1,2.64,4.62,6.61,6.61,0,0,1,2.58-4.62,9.88,9.88,0,0,1,5.83-1.5q4.44,0,6.3-1.86t1.86-6.3Q499.42,279.14,501.46,277Z"/><path class="cls-1" d="M550.31,241.81q-4.44,0-6.3,1.86T542.15,250q0,4.5,1.86,6.36t6.3,1.86a9.88,9.88,0,0,1,5.76,1.44,6.48,6.48,0,0,1,2.52,4.57,6.88,6.88,0,0,1,2.64-4.57,12.26,12.26,0,0,1,11.53,0,6.88,6.88,0,0,1,2.64,4.57,6.39,6.39,0,0,1,2.58-4.57,10.18,10.18,0,0,1,5.82-1.44q4.32,0,6.42,2c1.4,1.36,2.1,3.53,2.1,6.49s.62,5.06,1.86,6.3,3.34,1.86,6.31,1.86,5,.7,6.42,2.1,2.1,3.56,2.1,6.48-.7,5.08-2.1,6.48-3.54,2.1-6.42,2.1-5.07.6-6.31,1.8-1.86,3.32-1.86,6.37q0,4.32-2.1,6.42t-6.42,2.1a9.87,9.87,0,0,1-5.82-1.5,6.61,6.61,0,0,1-2.58-4.62,7.12,7.12,0,0,1-2.64,4.62,11.83,11.83,0,0,1-11.53,0,7.12,7.12,0,0,1-2.64-4.62,6.7,6.7,0,0,1-2.52,4.62,9.58,9.58,0,0,1-5.76,1.5q-4.44,0-6.54-2.1t-2.1-6.42q0-4.57-1.8-6.37t-6.36-1.8c-2.88,0-5-.7-6.42-2.1s-2.11-3.56-2.11-6.48.7-5.08,2.11-6.48,3.55-2.1,6.48-2.1,5.08.7,6.48,2.1,2.1,3.54,2.1,6.42.62,5.06,1.86,6.3,3.34,1.86,6.3,1.86a9.58,9.58,0,0,1,5.76,1.5,6.7,6.7,0,0,1,2.52,4.62,7.12,7.12,0,0,1,2.64-4.62,11.83,11.83,0,0,1,11.53,0,7.12,7.12,0,0,1,2.64,4.62,6.61,6.61,0,0,1,2.58-4.62,9.87,9.87,0,0,1,5.82-1.5q4.44,0,6.3-1.86t1.86-6.3q0-4.44-1.86-6.3t-6.3-1.86a9.87,9.87,0,0,1-5.82-1.5,6.51,6.51,0,0,1-2.58-4.5,7,7,0,0,1-2.64,4.5,11.83,11.83,0,0,1-11.53,0,7,7,0,0,1-2.64-4.5,6.6,6.6,0,0,1-2.52,4.5,9.58,9.58,0,0,1-5.76,1.5q-4.44,0-6.54-2.1t-2.1-6.42q0-4.44-1.8-6.31t-6.36-1.86c-2.88,0-5-.7-6.42-2.1S525,253,525,250s.7-5.08,2.11-6.48,3.54-2.1,6.42-2.1q4.56,0,6.36-1.86t1.8-6.3q0-4.33,2.1-6.43c1.4-1.39,3.58-2.1,6.54-2.1a9.58,9.58,0,0,1,5.76,1.5,6.64,6.64,0,0,1,2.52,4.51,7.08,7.08,0,0,1,2.64-4.51,11.83,11.83,0,0,1,11.53,0,7.08,7.08,0,0,1,2.64,4.51,6.55,6.55,0,0,1,2.58-4.51,9.87,9.87,0,0,1,5.82-1.5c2.88,0,5,.71,6.42,2.1s2.1,3.54,2.1,6.43.62,5.06,1.86,6.3,3.34,1.86,6.31,1.86,5,.7,6.42,2.1,2.1,3.56,2.1,6.48-.7,5.08-2.1,6.48-3.56,2.1-6.48,2.1-5.07-.7-6.42-2.1-2-3.58-2-6.54-.62-5.06-1.86-6.3-3.34-1.86-6.3-1.86a10.18,10.18,0,0,1-5.82-1.44,6.39,6.39,0,0,1-2.58-4.56,6.88,6.88,0,0,1-2.64,4.56,12.26,12.26,0,0,1-11.53,0,6.88,6.88,0,0,1-2.64-4.56,6.48,6.48,0,0,1-2.52,4.56A9.88,9.88,0,0,1,550.31,241.81Z"/></g></g></svg>