<svg width="64" height="369" viewBox="0 0 64 369" fill="none" xmlns="http://www.w3.org/2000/svg">
<path d="M49.0901 369H9.653e-07L0 347.055C-9.83747e-08 344.818 0.375091 342.815 1.12527 341.044C1.82857 339.227 2.86007 337.69 4.21978 336.432C5.5326 335.174 7.12674 334.218 9.00219 333.566C10.8777 332.914 12.9407 332.588 15.1912 332.588C17.4886 332.588 19.5751 332.914 21.4506 333.566C23.2791 334.218 24.8733 335.174 26.233 336.432C27.5458 337.69 28.5773 339.227 29.3275 341.044C30.0308 342.815 30.3824 344.818 30.3824 347.055V359.775H49.0901V369ZM22.3648 359.775V347.893C22.3648 346.123 21.896 344.725 20.9582 343.7C19.9736 342.675 18.5905 342.162 16.8088 342.162H13.5736C11.7919 342.162 10.4322 342.675 9.49451 343.7C8.55678 344.725 8.08791 346.123 8.08791 347.893L8.08791 359.775H22.3648Z" fill="#53603E"/>
<path d="M49.0901 325.469H12.378V316.523H19.9736V316.173C18.989 315.941 18.0513 315.591 17.1604 315.125C16.2227 314.613 15.4022 313.96 14.6989 313.168C13.9956 312.376 13.433 311.444 13.011 310.373C12.589 309.254 12.378 307.973 12.378 306.529V304.572H20.8879V307.367C20.8879 310.396 21.3333 312.679 22.2242 314.217C23.115 315.754 24.5685 316.523 26.5846 316.523H49.0901V325.469Z" fill="#53603E"/>
<path d="M49.9341 283.906C49.9341 286.515 49.4886 288.868 48.5978 290.965C47.707 293.015 46.4176 294.785 44.7297 296.276C43.0418 297.721 41.0256 298.839 38.6813 299.631C36.2901 300.423 33.6176 300.819 30.6637 300.819C27.7099 300.819 25.0608 300.423 22.7165 299.631C20.3722 298.839 18.3795 297.721 16.7385 296.276C15.0505 294.785 13.7612 293.015 12.8703 290.965C11.9795 288.868 11.5341 286.515 11.5341 283.906C11.5341 281.297 11.9795 278.944 12.8703 276.847C13.7612 274.75 15.0505 272.98 16.7385 271.535C18.3795 270.044 20.3722 268.903 22.7165 268.111C25.0608 267.319 27.7099 266.923 30.6637 266.923C33.6176 266.923 36.2901 267.319 38.6813 268.111C41.0256 268.903 43.0418 270.044 44.7297 271.535C46.4176 272.98 47.707 274.75 48.5978 276.847C49.4886 278.944 49.9341 281.297 49.9341 283.906ZM42.6901 283.906C42.6901 281.53 41.9634 279.666 40.5099 278.315C39.0564 276.964 36.9231 276.288 34.1099 276.288H27.2879C24.5216 276.288 22.4117 276.964 20.9582 278.315C19.5048 279.666 18.778 281.53 18.778 283.906C18.778 286.236 19.5048 288.076 20.9582 289.427C22.4117 290.778 24.5216 291.454 27.2879 291.454H34.1099C36.9231 291.454 39.0564 290.778 40.5099 289.427C41.9634 288.076 42.6901 286.236 42.6901 283.906Z" fill="#53603E"/>
<path d="M52.1846 226.074C54.107 226.074 55.7949 226.424 57.2484 227.122C58.7487 227.775 59.9912 228.87 60.9758 230.407C61.9604 231.945 62.7106 233.925 63.2264 236.348C63.7421 238.771 64 241.729 64 245.224C64 248.299 63.789 250.908 63.367 253.051C62.9919 255.195 62.4293 256.965 61.6791 258.363C60.9758 259.714 60.085 260.693 59.0066 261.298C57.9282 261.904 56.7092 262.207 55.3494 262.207C53.2864 262.207 51.6689 261.648 50.4967 260.53C49.3714 259.365 48.6447 257.757 48.3165 255.707H47.5429C47.1678 257.198 46.441 258.363 45.3626 259.202C44.2374 259.994 42.9245 260.39 41.4242 260.39C40.4864 260.39 39.6659 260.203 38.9626 259.831C38.2125 259.458 37.5795 258.969 37.0637 258.363C36.548 257.711 36.126 256.988 35.7978 256.196C35.4227 255.404 35.1414 254.566 34.9538 253.68H34.6725C33.641 255.917 32.211 257.594 30.3824 258.712C28.5538 259.784 26.4205 260.32 23.9824 260.32C20.2315 260.32 17.2308 259.039 14.9802 256.476C12.6828 253.913 11.5341 250.163 11.5341 245.224C11.5341 244.106 11.6044 243.011 11.7451 241.939C11.8857 240.821 12.1201 239.796 12.4483 238.864H11.2527C7.68937 238.864 5.90769 237.14 5.90769 233.692V228.031H12.8V235.789H13.7846C14.863 233.878 16.2696 232.457 18.0044 231.525C19.7392 230.594 21.7319 230.128 23.9824 230.128C27.6864 230.128 30.6637 231.409 32.9143 233.972C35.1648 236.488 36.2901 240.238 36.2901 245.224C36.2901 247.367 36.0791 249.231 35.6571 250.815C35.9853 251.514 36.4308 252.119 36.9934 252.632C37.5092 253.145 38.1656 253.401 38.9626 253.401C40.7912 253.401 41.7055 251.817 41.7055 248.648V238.864C41.7055 234.391 42.6432 231.153 44.5187 229.149C46.3473 227.099 48.9026 226.074 52.1846 226.074ZM53.2396 234.461C52.0674 234.461 51.1531 234.927 50.4967 235.859C49.8403 236.79 49.5121 238.398 49.5121 240.681V253.121C50.4498 254.379 51.7158 255.008 53.3099 255.008C54.7165 255.008 55.8183 254.426 56.6154 253.261C57.4125 252.096 57.811 250.116 57.811 247.32V242.848C57.811 239.912 57.4359 237.792 56.6857 236.488C55.9355 235.136 54.7868 234.461 53.2396 234.461ZM30.1714 245.224C30.1714 240.844 28.296 238.654 24.5451 238.654H23.3494C19.5985 238.654 17.7231 240.844 17.7231 245.224C17.7231 249.603 19.5985 251.793 23.3494 251.793H24.5451C28.296 251.793 30.1714 249.603 30.1714 245.224Z" fill="#53603E"/>
<path d="M49.0901 220.908L12.378 220.908L12.378 211.962H19.9736V211.612C18.989 211.379 18.0513 211.03 17.1604 210.564C16.2227 210.052 15.4022 209.399 14.6989 208.607C13.9956 207.815 13.433 206.883 13.011 205.812C12.589 204.693 12.378 203.412 12.378 201.968V200.011H20.8879V202.806C20.8879 205.835 21.3333 208.118 22.2242 209.656C23.115 211.193 24.5685 211.962 26.5846 211.962H49.0901V220.908Z" fill="#53603E"/>
<path d="M49.0901 167.384C49.0901 169.341 48.5275 170.902 47.4022 172.067C46.23 173.185 44.6828 173.884 42.7604 174.163V174.583C45.1516 175.188 46.9568 176.423 48.1758 178.287C49.348 180.15 49.9341 182.457 49.9341 185.206C49.9341 188.933 48.9494 191.799 46.9802 193.802C45.011 195.806 42.3853 196.807 39.1033 196.807C35.3055 196.807 32.4923 195.456 30.6637 192.754C28.7883 190.051 27.8505 186.207 27.8505 181.222L27.8505 175.002H25.178C23.115 175.002 21.5209 175.538 20.3956 176.609C19.2703 177.681 18.7077 179.405 18.7077 181.781C18.7077 183.878 19.1766 185.578 20.1143 186.883C21.0051 188.141 22.0835 189.213 23.3494 190.098L18.567 195.41C16.4571 194.058 14.7692 192.265 13.5033 190.028C12.1905 187.792 11.5341 184.833 11.5341 181.152C11.5341 176.213 12.6593 172.463 14.9099 169.9C17.1604 167.337 20.3956 166.056 24.6154 166.056H41.9165V162.422H49.0901V167.384ZM43.3934 182.2C43.3934 180.197 42.948 178.496 42.0571 177.099C41.1663 175.701 39.8535 175.002 38.1187 175.002H33.2659V180.733C33.2659 185.392 34.7663 187.722 37.767 187.722H38.9626C40.463 187.722 41.5883 187.256 42.3385 186.324C43.0418 185.345 43.3934 183.971 43.3934 182.2Z" fill="#53603E"/>
<path d="M49.0901 155.182L12.378 155.182V146.236H18.4967V145.886C16.5744 145.188 14.9333 144.069 13.5736 142.532C12.2139 140.994 11.5341 138.851 11.5341 136.102C11.5341 133.586 12.1436 131.419 13.3626 129.602C14.5817 127.785 16.4337 126.434 18.9187 125.549V125.409C16.8557 124.757 15.1209 123.475 13.7143 121.565C12.2608 119.608 11.5341 117.162 11.5341 114.227C11.5341 110.639 12.7765 107.89 15.2615 105.98C17.7465 104.023 21.2864 103.044 25.8813 103.044H49.0901L49.0901 111.99H26.7956C21.5443 111.99 18.9187 113.947 18.9187 117.861C18.9187 118.746 19.0593 119.608 19.3407 120.447C19.5751 121.239 19.9502 121.961 20.4659 122.613C20.9348 123.219 21.5443 123.708 22.2945 124.081C22.9978 124.454 23.8417 124.64 24.8264 124.64H49.0901V133.586H26.7956C21.5443 133.586 18.9187 135.543 18.9187 139.457C18.9187 140.295 19.0593 141.134 19.3407 141.973C19.5751 142.765 19.9502 143.487 20.4659 144.139C20.9348 144.745 21.5443 145.257 22.2945 145.677C22.9978 146.049 23.8418 146.236 24.8264 146.236H49.0901V155.182Z" fill="#53603E"/>
<path d="M49.0901 93.1412H12.378V84.1954H18.4967V83.8459C16.5743 83.147 14.9333 82.0288 13.5736 80.4913C12.2139 78.9537 11.5341 76.8104 11.5341 74.0614C11.5341 71.5454 12.1436 69.3788 13.3626 67.5617C14.5817 65.7446 16.4337 64.3934 18.9187 63.5081V63.3684C16.8557 62.7161 15.1209 61.4348 13.7143 59.5244C12.2608 57.5675 11.5341 55.1214 11.5341 52.1861C11.5341 48.5984 12.7765 45.8494 15.2615 43.9391C17.7465 41.9822 21.2864 41.0038 25.8813 41.0038H49.0901V49.9496H26.7956C21.5443 49.9496 18.9187 51.9065 18.9187 55.8203C18.9187 56.7056 19.0593 57.5675 19.3406 58.4062C19.5751 59.1983 19.9502 59.9205 20.4659 60.5728C20.9348 61.1785 21.5443 61.6677 22.2945 62.0405C22.9978 62.4132 23.8417 62.5996 24.8264 62.5996H49.0901V71.5454H26.7956C21.5443 71.5454 18.9187 73.5023 18.9187 77.4161C18.9187 78.2548 19.0593 79.0935 19.3406 79.9321C19.5751 80.7242 19.9502 81.4464 20.4659 82.0987C20.9348 82.7044 21.5443 83.2169 22.2945 83.6363C22.9978 84.009 23.8417 84.1954 24.8264 84.1954H49.0901V93.1412Z" fill="#53603E"/>
<path d="M49.9341 16.3541C49.9341 19.0565 49.4886 21.4793 48.5978 23.6226C47.6601 25.7193 46.3707 27.5131 44.7297 29.0041C43.0417 30.4485 41.0256 31.5667 38.6813 32.3588C36.2901 33.1509 33.6176 33.5469 30.6637 33.5469C27.7568 33.5469 25.1311 33.1742 22.7868 32.4287C20.4425 31.6366 18.4498 30.5184 16.8088 29.074C15.1209 27.6296 13.8315 25.8591 12.9406 23.7624C12.0029 21.6657 11.5341 19.2895 11.5341 16.6337C11.534 13.7915 12.0264 11.3221 13.011 9.2254C13.9956 7.12872 15.3319 5.40478 17.0198 4.05359C18.7077 2.70239 20.6769 1.70064 22.9275 1.04834C25.1311 0.349448 27.4989 2.38287e-07 30.0308 1.28308e-07L32.9846 0L32.9846 24.2516L33.8989 24.2516C36.5714 24.2516 38.7282 23.5061 40.3692 22.0151C41.9634 20.5242 42.7604 18.311 42.7604 15.3757C42.7604 13.1392 42.2916 11.3221 41.3538 9.92429C40.4161 8.47991 39.2205 7.19861 37.767 6.08038L43.1824 1.25801C45.2923 2.74898 46.9568 4.79907 48.1758 7.40827C49.348 9.97088 49.9341 12.9528 49.9341 16.3541ZM18.2857 16.4939C18.2857 18.8701 19.0828 20.7571 20.6769 22.1549C22.271 23.5527 24.3341 24.2516 26.8659 24.2516H27.4286V9.29529H26.7956C24.2637 9.29529 22.2242 9.92429 20.6769 11.1823C19.0828 12.3937 18.2857 14.1642 18.2857 16.4939Z" fill="#53603E"/>
</svg>
